<mxfile host="65bd71144e">
    <diagram name="第 1 页" id="_77UUn-rIxtwHtK2FHcY">
        <mxGraphModel dx="2692" dy="1248" grid="1" gridSize="10" guides="1" tooltips="1" connect="1" arrows="1" fold="1" page="1" pageScale="1" pageWidth="827" pageHeight="1169" background="none" math="0" shadow="0">
            <root>
                <mxCell id="0"/>
                <mxCell id="1" parent="0"/>
                <mxCell id="95" style="edgeStyle=orthogonalEdgeStyle;shape=connector;curved=1;rounded=1;html=1;entryX=1;entryY=0.5;entryDx=0;entryDy=0;dashed=1;labelBackgroundColor=default;strokeColor=default;fontFamily=Helvetica;fontSize=11;fontColor=default;startArrow=none;startFill=0;endArrow=classic;" edge="1" parent="1" target="34">
                    <mxGeometry relative="1" as="geometry">
                        <mxPoint x="120" y="624" as="sourcePoint"/>
                    </mxGeometry>
                </mxCell>
                <mxCell id="yZXLWe79OLjicTHm0tPa-15" value="teamsphere-system" style="swimlane;whiteSpace=wrap;html=1;rounded=0;" parent="1" vertex="1">
                    <mxGeometry x="120" y="387" width="660" height="473" as="geometry"/>
                </mxCell>
                <mxCell id="42" value="" style="group" vertex="1" connectable="0" parent="yZXLWe79OLjicTHm0tPa-15">
                    <mxGeometry x="110" y="63" width="78" height="118" as="geometry"/>
                </mxCell>
                <mxCell id="40" value="" style="sketch=0;outlineConnect=0;fontColor=#232F3E;gradientColor=none;fillColor=#3F8624;strokeColor=none;dashed=0;verticalLabelPosition=bottom;verticalAlign=top;align=center;html=1;fontSize=12;fontStyle=0;aspect=fixed;pointerEvents=1;shape=mxgraph.aws4.iot_greengrass_component_nucleus;rounded=0;" vertex="1" parent="42">
                    <mxGeometry width="78" height="78" as="geometry"/>
                </mxCell>
                <mxCell id="41" value="&lt;font style=&quot;font-size: 14px;&quot;&gt;user service&lt;/font&gt;" style="text;html=1;strokeColor=none;fillColor=none;align=center;verticalAlign=middle;whiteSpace=wrap;rounded=0;" vertex="1" parent="42">
                    <mxGeometry x="9" y="88" width="60" height="30" as="geometry"/>
                </mxCell>
                <mxCell id="46" value="" style="group" vertex="1" connectable="0" parent="yZXLWe79OLjicTHm0tPa-15">
                    <mxGeometry x="480" y="58" width="78" height="118" as="geometry"/>
                </mxCell>
                <mxCell id="47" value="" style="sketch=0;outlineConnect=0;fontColor=#232F3E;gradientColor=none;fillColor=#3F8624;strokeColor=none;dashed=0;verticalLabelPosition=bottom;verticalAlign=top;align=center;html=1;fontSize=12;fontStyle=0;aspect=fixed;pointerEvents=1;shape=mxgraph.aws4.iot_greengrass_component_nucleus;rounded=0;" vertex="1" parent="46">
                    <mxGeometry width="78" height="78" as="geometry"/>
                </mxCell>
                <mxCell id="48" value="&lt;font style=&quot;font-size: 14px;&quot;&gt;meeting service&lt;/font&gt;" style="text;html=1;strokeColor=none;fillColor=none;align=center;verticalAlign=middle;whiteSpace=wrap;rounded=0;" vertex="1" parent="46">
                    <mxGeometry x="9" y="88" width="60" height="30" as="geometry"/>
                </mxCell>
                <mxCell id="52" value="" style="group" vertex="1" connectable="0" parent="yZXLWe79OLjicTHm0tPa-15">
                    <mxGeometry x="291" y="63" width="78" height="118" as="geometry"/>
                </mxCell>
                <mxCell id="53" value="" style="sketch=0;outlineConnect=0;fontColor=#232F3E;gradientColor=none;fillColor=#3F8624;strokeColor=none;dashed=0;verticalLabelPosition=bottom;verticalAlign=top;align=center;html=1;fontSize=12;fontStyle=0;aspect=fixed;pointerEvents=1;shape=mxgraph.aws4.iot_greengrass_component_nucleus;rounded=0;" vertex="1" parent="52">
                    <mxGeometry width="78" height="78" as="geometry"/>
                </mxCell>
                <mxCell id="54" value="&lt;font style=&quot;font-size: 14px;&quot;&gt;file service&lt;/font&gt;" style="text;html=1;strokeColor=none;fillColor=none;align=center;verticalAlign=middle;whiteSpace=wrap;rounded=0;" vertex="1" parent="52">
                    <mxGeometry x="9" y="88" width="60" height="30" as="geometry"/>
                </mxCell>
                <mxCell id="49" value="" style="group" vertex="1" connectable="0" parent="yZXLWe79OLjicTHm0tPa-15">
                    <mxGeometry x="294" y="197.5" width="78" height="118" as="geometry"/>
                </mxCell>
                <mxCell id="50" value="" style="sketch=0;outlineConnect=0;fontColor=#232F3E;gradientColor=none;fillColor=#3F8624;strokeColor=none;dashed=0;verticalLabelPosition=bottom;verticalAlign=top;align=center;html=1;fontSize=12;fontStyle=0;aspect=fixed;pointerEvents=1;shape=mxgraph.aws4.iot_greengrass_component_nucleus;rounded=0;" vertex="1" parent="49">
                    <mxGeometry width="78" height="78" as="geometry"/>
                </mxCell>
                <mxCell id="51" value="project service" style="text;html=1;strokeColor=none;fillColor=none;align=center;verticalAlign=middle;whiteSpace=wrap;rounded=0;" vertex="1" parent="49">
                    <mxGeometry x="9" y="88" width="60" height="30" as="geometry"/>
                </mxCell>
                <mxCell id="55" value="" style="group" vertex="1" connectable="0" parent="yZXLWe79OLjicTHm0tPa-15">
                    <mxGeometry x="294" y="333" width="78" height="118" as="geometry"/>
                </mxCell>
                <mxCell id="56" value="" style="sketch=0;outlineConnect=0;fontColor=#232F3E;gradientColor=none;fillColor=#3F8624;strokeColor=none;dashed=0;verticalLabelPosition=bottom;verticalAlign=top;align=center;html=1;fontSize=12;fontStyle=0;aspect=fixed;pointerEvents=1;shape=mxgraph.aws4.iot_greengrass_component_nucleus;rounded=0;" vertex="1" parent="55">
                    <mxGeometry width="78" height="78" as="geometry"/>
                </mxCell>
                <mxCell id="57" value="&lt;font style=&quot;font-size: 14px;&quot;&gt;schedule service&lt;/font&gt;" style="text;html=1;strokeColor=none;fillColor=none;align=center;verticalAlign=middle;whiteSpace=wrap;rounded=0;" vertex="1" parent="55">
                    <mxGeometry x="9" y="88" width="60" height="30" as="geometry"/>
                </mxCell>
                <mxCell id="58" value="" style="group" vertex="1" connectable="0" parent="yZXLWe79OLjicTHm0tPa-15">
                    <mxGeometry x="110" y="333" width="78" height="118" as="geometry"/>
                </mxCell>
                <mxCell id="59" value="" style="sketch=0;outlineConnect=0;fontColor=#232F3E;gradientColor=none;fillColor=#3F8624;strokeColor=none;dashed=0;verticalLabelPosition=bottom;verticalAlign=top;align=center;html=1;fontSize=12;fontStyle=0;aspect=fixed;pointerEvents=1;shape=mxgraph.aws4.iot_greengrass_component_nucleus;rounded=0;" vertex="1" parent="58">
                    <mxGeometry width="78" height="78" as="geometry"/>
                </mxCell>
                <mxCell id="60" value="&lt;font style=&quot;font-size: 14px;&quot;&gt;chat service&lt;/font&gt;" style="text;html=1;strokeColor=none;fillColor=none;align=center;verticalAlign=middle;whiteSpace=wrap;rounded=0;" vertex="1" parent="58">
                    <mxGeometry x="9" y="88" width="60" height="30" as="geometry"/>
                </mxCell>
                <mxCell id="43" value="" style="group" vertex="1" connectable="0" parent="yZXLWe79OLjicTHm0tPa-15">
                    <mxGeometry x="480" y="333" width="78" height="118" as="geometry"/>
                </mxCell>
                <mxCell id="44" value="" style="sketch=0;outlineConnect=0;fontColor=#232F3E;gradientColor=none;fillColor=#3F8624;strokeColor=none;dashed=0;verticalLabelPosition=bottom;verticalAlign=top;align=center;html=1;fontSize=12;fontStyle=0;aspect=fixed;pointerEvents=1;shape=mxgraph.aws4.iot_greengrass_component_nucleus;rounded=0;" vertex="1" parent="43">
                    <mxGeometry width="78" height="78" as="geometry"/>
                </mxCell>
                <mxCell id="45" value="&lt;font style=&quot;font-size: 14px;&quot;&gt;task service&lt;/font&gt;" style="text;html=1;strokeColor=none;fillColor=none;align=center;verticalAlign=middle;whiteSpace=wrap;rounded=0;" vertex="1" parent="43">
                    <mxGeometry x="9" y="88" width="60" height="30" as="geometry"/>
                </mxCell>
                <mxCell id="69" style="edgeStyle=orthogonalEdgeStyle;shape=connector;rounded=1;html=1;dashed=1;labelBackgroundColor=default;strokeColor=default;fontFamily=Helvetica;fontSize=11;fontColor=default;endArrow=classic;curved=1;" edge="1" parent="yZXLWe79OLjicTHm0tPa-15" source="40" target="47">
                    <mxGeometry relative="1" as="geometry">
                        <Array as="points">
                            <mxPoint x="149" y="43"/>
                            <mxPoint x="519" y="43"/>
                        </Array>
                    </mxGeometry>
                </mxCell>
                <mxCell id="71" style="edgeStyle=orthogonalEdgeStyle;shape=connector;curved=1;rounded=1;html=1;dashed=1;labelBackgroundColor=default;strokeColor=default;fontFamily=Helvetica;fontSize=11;fontColor=default;endArrow=classic;" edge="1" parent="yZXLWe79OLjicTHm0tPa-15" source="50" target="53">
                    <mxGeometry relative="1" as="geometry"/>
                </mxCell>
                <mxCell id="73" style="edgeStyle=orthogonalEdgeStyle;shape=connector;curved=1;rounded=1;html=1;dashed=1;labelBackgroundColor=default;strokeColor=default;fontFamily=Helvetica;fontSize=11;fontColor=default;endArrow=classic;" edge="1" parent="yZXLWe79OLjicTHm0tPa-15" source="40" target="59">
                    <mxGeometry relative="1" as="geometry"/>
                </mxCell>
                <mxCell id="74" style="edgeStyle=orthogonalEdgeStyle;shape=connector;curved=1;rounded=1;html=1;dashed=1;labelBackgroundColor=default;strokeColor=default;fontFamily=Helvetica;fontSize=11;fontColor=default;endArrow=classic;" edge="1" parent="yZXLWe79OLjicTHm0tPa-15" source="40" target="50">
                    <mxGeometry relative="1" as="geometry">
                        <Array as="points">
                            <mxPoint x="149" y="233"/>
                        </Array>
                    </mxGeometry>
                </mxCell>
                <mxCell id="75" style="edgeStyle=orthogonalEdgeStyle;shape=connector;curved=1;rounded=1;html=1;dashed=1;labelBackgroundColor=default;strokeColor=default;fontFamily=Helvetica;fontSize=11;fontColor=default;endArrow=classic;" edge="1" parent="yZXLWe79OLjicTHm0tPa-15" source="40" target="44">
                    <mxGeometry relative="1" as="geometry">
                        <Array as="points">
                            <mxPoint x="149" y="53"/>
                            <mxPoint x="470" y="53"/>
                            <mxPoint x="470" y="372"/>
                        </Array>
                    </mxGeometry>
                </mxCell>
                <mxCell id="76" style="edgeStyle=orthogonalEdgeStyle;shape=connector;curved=1;rounded=1;html=1;dashed=1;labelBackgroundColor=default;strokeColor=default;fontFamily=Helvetica;fontSize=11;fontColor=default;endArrow=classic;" edge="1" parent="yZXLWe79OLjicTHm0tPa-15" source="53" target="44">
                    <mxGeometry relative="1" as="geometry"/>
                </mxCell>
                <mxCell id="77" style="edgeStyle=orthogonalEdgeStyle;shape=connector;curved=1;rounded=1;html=1;dashed=1;labelBackgroundColor=default;strokeColor=default;fontFamily=Helvetica;fontSize=11;fontColor=default;endArrow=classic;" edge="1" parent="yZXLWe79OLjicTHm0tPa-15" source="40" target="56">
                    <mxGeometry relative="1" as="geometry">
                        <Array as="points">
                            <mxPoint x="149" y="303"/>
                            <mxPoint x="333" y="303"/>
                        </Array>
                    </mxGeometry>
                </mxCell>
                <mxCell id="yZXLWe79OLjicTHm0tPa-29" value="database" style="swimlane;whiteSpace=wrap;html=1;rounded=0;" parent="1" vertex="1">
                    <mxGeometry x="230" y="1055" width="410" height="170" as="geometry"/>
                </mxCell>
                <mxCell id="81" value="" style="group" vertex="1" connectable="0" parent="yZXLWe79OLjicTHm0tPa-29">
                    <mxGeometry x="180" y="60" width="60" height="80" as="geometry"/>
                </mxCell>
                <mxCell id="yZXLWe79OLjicTHm0tPa-32" value="" style="shape=image;verticalLabelPosition=bottom;labelBackgroundColor=default;verticalAlign=top;aspect=fixed;imageAspect=0;image=data:image/svg+xml,PHN2ZyB4bWxuczp4bGluaz0iaHR0cDovL3d3dy53My5vcmcvMTk5OS94bGluayIgeG1sbnM9Imh0dHA6Ly93d3cudzMub3JnLzIwMDAvc3ZnIiBoZWlnaHQ9IjIwMCIgd2lkdGg9IjIwMCIgdmVyc2lvbj0iMS4xIiB2aWV3Qm94PSIwIDAgMTAyNCAxMDI0IiBjbGFzcz0iaWNvbiI+PHBhdGggZmlsbD0iI0ZGNkEwMCIgZD0iTTkxMi44OTYgNDU2LjcwNHMtMi4wNDggMCAwIDBjLTQ3LjEwNC00LjA5Ni04MC44OTYgOC43MDQtMTAyLjQgMzYuMzUyLTQuMDk2IDYuMTQ0LTEwLjc1MiAxMi44LTE0Ljg0OCAyMS41MDQtNC4wOTYgOC43MDQtOC43MDQgMTYuODk2LTEyLjggMjcuNjQ4LTIuMDQ4IDQuMDk2LTguNzA0IDIxLjUwNC0xMC43NTIgMjMuNTUyLTQuMDk2IDEwLjc1Mi04LjcwNCAxNi44OTYtMTIuOCAyMS41MDRsLTYuNjU2IDYuMTQ0Yy0xOS40NTYgMTkuNDU2LTM0LjMwNCAyNy42NDgtNTcuMzQ0IDI5LjY5Ni0zNi4zNTIgNC4wOTYtNTEuMiA2LjY1Ni03NC43NTIgMTIuOC0yNS42IDguNzA0LTQ5LjE1MiAyMS41MDQtNjguMDk2IDQwLjQ0OC0xMC43NTIgMTAuNzUyLTE5LjQ1NiAyMS41MDQtMjUuNiAzMS43NDQtNC4wOTYgNi42NTYtMTAuNzUyIDIxLjUwNC0xMi44IDIxLjUwNC00LjA5NiA2LjE0NC00LjA5NiA2LjE0NC0xMi44IDYuMTQ0LTI1LjYgMC00NS4wNTYgMjEuNTA0LTQ5LjE1MiA0Ny4xMDQtNC4wOTYgMjkuNjk2IDE0Ljg0OCA1MS4yIDQ5LjE1MiA0OS4xNTIgMjcuNjQ4LTIuMDQ4IDQ5LjE1Mi0xMC43NTIgNzQuNzUyLTI3LjY0OCA0LjA5Ni0yLjA0OCAxOS40NTYtMTIuOCAyMS41MDQtMTQuODQ4IDYuMTQ0LTQuMDk2IDEwLjc1Mi02LjY1NiAxMi44LTYuNjU2IDEyLjgtNC4wOTYgNzAuNjU2LTEwLjc1MiA5My42OTYtMTIuOHYyLjA0OGMtMi4wNDggMTIuOC04LjcwNCAyMS41MDQtMTQuODQ4IDI3LjY0OC04LjcwNCA4LjcwNC0xMi44IDE5LjQ1Ni00LjA5NiAyOS42OTYgNC4wOTYgNi4xNDQgMTIuOCA4LjcwNCAyMS41MDQgOC43MDQgMTAuNzUyIDAgMjUuNi00LjA5NiA0MC40NDgtMTAuNzUyIDI3LjY0OC0xMi44IDUxLjItMzEuNzQ0IDY0LTU5LjkwNCAxMi44IDEwLjc1MiAyNS42IDE0Ljg0OCAzOC40IDEyLjggMTkuNDU2LTIuMDQ4IDMxLjc0NC0xMC43NTIgMzQuMzA0LTI1LjYgMi4wNDgtNi42NTYgMC0xMi44LTQuMDk2LTE2Ljg5Ni0xMi44LTEwLjc1Mi0xNi44OTYtMjMuNTUyLTE0Ljg0OC00MC40NDggMC00LjA5NiAyLjA0OC0xMC43NTIgNC4wOTYtMTQuODQ4IDAgMCA2LjY1Ni0xMC43NTIgOC43MDQtMTYuODk2IDguNzA0LTE2Ljg5NiAxNC44NDgtMzYuMzUyIDE2Ljg5Ni02Ni4wNDh2LTQuMDk2YzIuMDQ4LTI3LjY0OCA4LjcwNC00Mi40OTYgMTYuODk2LTQ3LjEwNCAxNi44OTYtOC43MDQgMjkuNjk2LTI5LjY5NiAzMS43NDQtNTMuMjQ4IDYuMTQ0LTE1LjM2LTIuNTYtMzguNC0zMC4yMDgtMzguNHoiLz48cGF0aCBmaWxsPSIjRkY2QTAwIiBkPSJNNDczLjYgNzIyLjk0NGwtNDAuNDQ4LTY4LjA5Ni01Ny4zNDQgOTYuMjU2SDIxMC45NDRMMTI4IDYxNC40bDgwLjg5Ni0xMzYuNzA0aDEzMi4wOTZMMjcwLjg0OCAzNjAuNDQ4bDgwLjg5Ni0xMzYuNzA0aDE2Ni40TDU5OS4wNCAzNjAuNDQ4bC03MC42NTYgMTE3LjI0OGgxMjUuOTUybDY4LjA5NiAxMTMuMTUyYzYuMTQ0LTQuMDk2IDEwLjc1Mi04LjcwNCAxOS40NTYtMTQuODQ4bDYuNjU2LTYuNjU2czIuMDQ4LTQuMDk2IDYuMTQ0LTEwLjc1Mkw2ODIuNDk2IDQzNS4yaC03NC43NTJsNDUuMDU2LTc0Ljc1Mi0xMDYuNDk2LTE3OS4ySDMyOC43MDRsLTEwNi40OTYgMTc5LjJMMjY2Ljc1MiA0MzUuMkgxODUuMzQ0bC0xMDYuNDk2IDE3OS4yIDEwNi40OTYgMTc5LjJoMjE1LjU1MmwzMS43NDQtNTMuMjQ4IDEwLjc1MiAxNi44OTZjOC43MDQtMTQuODQ4IDE3LjQwOC0yNS42IDMwLjIwOC0zNC4zMDR6Ii8+PC9zdmc+;" parent="81" vertex="1">
                    <mxGeometry x="5" width="50" height="50" as="geometry"/>
                </mxCell>
                <mxCell id="yZXLWe79OLjicTHm0tPa-33" value="Mariadb" style="text;html=1;strokeColor=none;fillColor=none;align=center;verticalAlign=middle;whiteSpace=wrap;rounded=0;" parent="81" vertex="1">
                    <mxGeometry y="50" width="60" height="30" as="geometry"/>
                </mxCell>
                <mxCell id="82" value="" style="group" vertex="1" connectable="0" parent="yZXLWe79OLjicTHm0tPa-29">
                    <mxGeometry x="50" y="60" width="60" height="77" as="geometry"/>
                </mxCell>
                <mxCell id="yZXLWe79OLjicTHm0tPa-30" value="" style="shape=image;verticalLabelPosition=bottom;labelBackgroundColor=default;verticalAlign=top;aspect=fixed;imageAspect=0;image=data:image/svg+xml,PHN2ZyB4bWxuczp4bGluaz0iaHR0cDovL3d3dy53My5vcmcvMTk5OS94bGluayIgeG1sbnM9Imh0dHA6Ly93d3cudzMub3JnLzIwMDAvc3ZnIiBoZWlnaHQ9IjIwMCIgd2lkdGg9IjIwMCIgdmVyc2lvbj0iMS4xIiB2aWV3Qm94PSIwIDAgMTAyNCAxMDI0IiBjbGFzcz0iaWNvbiI+PHBhdGggZmlsbD0iIzM0ODBBRiIgZD0iTTI5My4wNCAyNDMuNjY0Yy05Ljc0NCAwLTE2LjMzNiAxLjE4NC0yMy4yIDIuNzg0djEuMTJoMS4xODRjNC41NzYgOC43ODQgMTIuMzY4IDE1LjIgMTguMTI4IDIzLjA3MiA0LjU2IDkuMDQgOC40NjQgMTguMDggMTMuMDI0IDI3LjA0bDEuMTg0LTEuMjQ4YzcuOTY4LTUuNiAxMS44NTYtMTQuNTYgMTEuODU2LTI4LjE2LTMuMzkyLTMuOTY4LTMuODg4LTcuOTUyLTYuNzY4LTExLjg0LTMuMzkyLTUuNjY0LTEwLjY3Mi04LjQ2NC0xNS4yMzItMTIuOTQ0bC0wLjE3NiAwLjE3NnogbTU3Ny4yOCA0OTEuMjY0Yy00NS4zMTItMS4xODQtODAuNDMyIDMuMzc2LTEwOS44MDggMTUuODg4LTguNDggMy4zOTItMjIuMDE2IDMuMzkyLTIzLjIgMTQuMTI4IDQuNjU2IDQuNDggNS4zMjggMTEuODQgOS4zMTIgMTguMDggNi43NjggMTEuMzQ0IDE4LjQ2NCAyNi40OCAyOS4yOCAzNC40MTYgMTEuODcyIDkuMzEyIDIzLjcxMiAxOC4yNzIgMzYuMTYgMjYuMjI0IDIyLjAxNiAxMy41MiA0Ni45OTIgMjEuNTUyIDY4LjU3NiAzNS4xNjggMTIuMjcyIDcuOTUyIDI0LjggMTguMDE2IDM3LjI0OCAyNi40NjQgNi4xNzYgNC4yMjQgMTAuMTYgMTEuODQgMTguMTEyIDE0LjU2di0xLjY5NmMtMy44ODgtNS4wODgtNS4wODgtMTIuNDMyLTguODk2LTE4LjA5Ni01LjY2NC01LjY2NC0xMS4zNDQtMTAuNzUyLTE2LjkyOC0xNi4zMmEyNzIuNjU2IDI3Mi42NTYgMCAwIDAtNTguODMyLTU3LjA4OGMtMTguMTEyLTEyLjMzNi01Ny43NDQtMjkuNi02NS4xODQtNTAuMzA0bC0xLjEwNC0xLjE4NGMxMi4zNjgtMS4xMDQgMjcuMDg4LTUuNTg0IDM4Ljk0NC04Ljk2IDE5LjIxNi01LjA3MiAzNi44MzItMy45NjggNTYuNzItOC45NiA4Ljk2LTIuMjg4IDE4LjAzMi01LjA3MiAyNy4wODgtNy45NTJ2LTUuMDcyYy0xMC4xNi0xMC4xNDQtMTcuNzc2LTIzLjkzNi0yOC4yNzItMzMuMzkyYTc1MC42NCA3NTAuNjQgMCAwIDAtOTMuNDU2LTY5LjZjLTE3Ljc3Ni0xMS4zMjgtNDAuMzA0LTE4LjU5Mi01OS4wMDgtMjguMjQtNi43NjgtMy4zNzYtMTguMTEyLTUuMDcyLTIyLjAxNi0xMC43Mi0xMC4xNi0xMi4zNTItMTYuMDgtMjguNzY4LTIzLjI4LTQzLjQ3MmExNDk0Ljc2OCAxNDk0Ljc2OCAwIDAgMS00Ni4zMDQtOTguMzM2Yy0xMC4xNi0yMi4xNi0xNi4zMzYtNDQuMjI0LTI4Ljc4NC02NC41MTItNTguNC05Ni4xNDQtMTIxLjY0OC0xNTQuNC0yMTguOTI4LTIxMS4zOTItMjAuODk2LTExLjg0LTQ1Ljk1Mi0xNi45MTItNzIuNDY0LTIzLjE2OC0xNC4xMjgtMC42NzItMjguMjcyLTEuNjk2LTQyLjMyLTIuMjg4LTkuMzEyLTMuOTY4LTE4LjI4OC0xNC43Mi0yNi4yNC0xOS44NTYtMzIuMTYtMjAuMzA0LTExNS40NzItNjQuMjcyLTEzOS4xODQtNi4wOTYtMTUuMjMyIDM2LjcwNCAyMi42MDggNzIuODggMzUuNzI4IDkxLjQ4OCA5Ljc0NCAxMi45NDQgMjIuMDE2IDI3LjcyOCAyOC44IDQyLjI3MiAzLjk2OCA5LjgwOCA1LjA1NiAxOS44NzIgOS4wNCAzMC4xMTIgOC45NzYgMjQuODQ4IDE3LjUyIDUyLjU5MiAyOS4zNzYgNzUuODQgNi4xNzYgMTEuODQgMTIuOTYgMjQuMjcyIDIwLjkxMiAzNC45MjggNC41NzYgNi4xNiAxMi4zNjggOS4wNCAxNC4xNDQgMTkuMi03Ljk2OCAxMS40ODgtOC40OCAyOC4yMjQtMTMuMDQgNDIuMjU2LTIwLjMyIDY0LTEyLjM2OCAxNDMuMTUyIDE2LjQxNiAxOTAuMjQgOS4wNTYgMTQuMDQ4IDMwLjY1NiA0NS4xNjggNTkuNTIgMzMuMjQ4IDI1LjM5Mi0xMC4xNiAxOS44MDgtNDIuMjg4IDI3LjA4OC03MC42MDggMS42OTYtNi43NjggMC41OTItMTEuMjQ4IDQuMDY0LTE1LjgwOHYxLjI2NGM3Ljk1MiAxNS45MDQgMTUuOTIgMzEuMDQgMjMuMiA0Ni45MjggMTcuNDQgMjcuNzI4IDQ3LjkwNCA1Ni40OCA3My4zOTIgNzUuNjggMTMuNTM2IDEwLjE0NCAyNC4yODggMjcuNzI4IDQxLjIzMiAzMy45ODR2LTEuNjhoLTEuMjhjLTMuNjMyLTQuOTEyLTguNDY0LTcuMjgtMTMuMDI0LTExLjI0OGEyOTEuMzQ0IDI5MS4zNDQgMCAwIDEtMjkuNjMyLTMzLjgyNCA3NDAuNDggNzQwLjQ4IDAgMCAxLTYzLjI0OC0xMDIuOTkyYy05LjMxMi0xNy43Ni0xNy4xMDQtMzYuODY0LTI0LjU0NC01NC4zNjgtMy4zOTItNi43NjgtMy4zOTItMTYuOTEyLTkuMDU2LTIwLjI4OC04LjQ4IDEyLjMzNi0yMC45MTIgMjMuMDg4LTI3LjA4OCAzOC4zMDQtMTAuNzUyIDI0LjM1Mi0xMS44NTYgNTQuMjcyLTE1LjkyIDg1LjM5Mi0yLjI4OCAwLjU5Mi0xLjE4NCAwLTIuMjg4IDEuMTg0LTE4LjExMi00LjQtMjQuMjg4LTIzLjE2OC0zMS4wNzItMzguODgtMTYuOTI4LTQwLjE3Ni0xOS43MTItMTA0LjY4OC01LjA3Mi0xNTAuOTQ0IDMuOTY4LTExLjg0IDIwLjkxMi00OS4yIDE0LjEyOC02MC41NDQtMy41NTItMTAuNzItMTQuNzItMTYuODk2LTIwLjg5Ni0yNS42YTIwOS40NCAyMDkuNDQgMCAwIDEtMjAuMzItMzYuMTEyYy0xMy41NTItMzEuNjMyLTIwLjMyLTY2LjY0LTM1LjA0LTk4LjI1Ni02Ljc4NC0xNC42MjQtMTguNjQtMjkuOTItMjguMjg4LTQzLjM3Ni0xMC43NTItMTUuMjE2LTIyLjYwOC0yNS45NTItMzEuMTUyLTQzLjk2OC0yLjgtNi4xNzYtNi43NjgtMTYuNC0yLjI4OC0yMy4xNjggMS4xODQtNC41NiAzLjU1Mi02LjMzNiA3Ljk1Mi03LjYxNiA3LjQ1Ni02LjA4IDI4LjM2OCAxLjg3MiAzNS43MjggNS4yNDggMjAuOTEyIDguNDQ4IDM4LjUyOCAxNi40IDU2LjA0OCAyOC4yNCA3Ljk1MiA1LjU4NCAxNi41MTIgMTYuMzIgMjYuNjcyIDE5LjEwNGgxMS44NGMxOC4xMjggMy45ODQgMzguNTI4IDEuMTg0IDU1LjQ1NiA2LjE3NiAzMC4wNDggOS42MzIgNTcuMTM2IDIzLjY4IDgxLjQ0IDM4Ljg5NmE1MDMuNTY4IDUwMy41NjggMCAwIDEgMTc2LjUxMiAxOTMuMjhjNi43NjggMTMuMDI0IDkuNzI4IDI0Ljk2IDE1LjkwNCAzOC40OCAxMS44NTYgMjcuOTA0IDI2LjQ5NiA1Ni4wNjQgMzguNTI4IDgzLjA0IDExLjg0IDI2LjYyNCAyMy4yOCA1My43NiA0MC4yODggNzUuODQgOC40OCAxMS44NCA0Mi40OTYgMTguMDE2IDU3Ljc0NCAyNC4xNzYgMTEuMjQ4IDUuMDcyIDI4Ljc4NCA5LjcyOCAzOC45NDQgMTUuOTA0IDE5LjQ1NiAxMS44NCAzOC40MzIgMjUuMzYgNTYuNzA0IDM4LjQgOS4zMTIgNi40IDM3LjUwNCAyMC41MjggMzkuMiAzMS45NTJ6Ii8+PC9zdmc+;" parent="82" vertex="1">
                    <mxGeometry x="6.5" width="47" height="47" as="geometry"/>
                </mxCell>
                <mxCell id="yZXLWe79OLjicTHm0tPa-31" value="MySql" style="text;html=1;strokeColor=none;fillColor=none;align=center;verticalAlign=middle;whiteSpace=wrap;rounded=0;" parent="82" vertex="1">
                    <mxGeometry y="47" width="60" height="30" as="geometry"/>
                </mxCell>
                <mxCell id="80" value="" style="group" vertex="1" connectable="0" parent="yZXLWe79OLjicTHm0tPa-29">
                    <mxGeometry x="310" y="64" width="60" height="85" as="geometry"/>
                </mxCell>
                <mxCell id="yZXLWe79OLjicTHm0tPa-34" value="" style="shape=image;verticalLabelPosition=bottom;labelBackgroundColor=default;verticalAlign=top;aspect=fixed;imageAspect=0;image=data:image/svg+xml,PHN2ZyB4bWxuczp4bGluaz0iaHR0cDovL3d3dy53My5vcmcvMTk5OS94bGluayIgeG1sbnM9Imh0dHA6Ly93d3cudzMub3JnLzIwMDAvc3ZnIiBoZWlnaHQ9IjIwMCIgd2lkdGg9IjIwMCIgdmVyc2lvbj0iMS4xIiB2aWV3Qm94PSIwIDAgMTAyNCAxMDI0IiBjbGFzcz0iaWNvbiI+PHBhdGggZmlsbD0iIiBkPSJNNzMzLjAxMzMzMyA0MDYuMTAxMzMzYy01My44ODgtMjM3LjIyNjY2Ny0xODAuOTkyLTMxNS4xNzg2NjctMTk0LjY0NTMzMy0zNDUuMDAyNjY2QzUyMy4zNDkzMzMgNDAuMDY0IDUwNy4wOTMzMzMgMCA1MDcuMDkzMzMzIDBsLTAuMjEzMzMzIDIuMDkwNjY3djAuNTU0NjY2aC0wLjA0MjY2N2EyNC40OTA2NjcgMjQuNDkwNjY3IDAgMCAwLTAuMTcwNjY2IDEuNjY0djAuNjRoLTAuMDg1MzM0bC0wLjA4NTMzMyAxLjEwOTMzNHYxLjEwOTMzM2gtMC4xMjhjLTAuMDQyNjY3IDAuMzQxMzMzLTAuMDQyNjY3IDAuNzY4LTAuMTI4IDEuMDY2NjY3djAuODk2aC0wLjA4NTMzM2MwIDAuMjk4NjY3IDAgMC42NC0wLjA4NTMzNCAwLjg5NnYwLjg1MzMzM2gtMC4wODUzMzNsLTAuMDg1MzMzIDEuMzY1MzMzdjAuMDg1MzM0bC0wLjM4NCAyLjEzMzMzM3YwLjM0MTMzM2gtMC4wODUzMzRsLTAuMTI4IDAuNTEydjAuNzI1MzM0aC0wLjEyOHYwLjkzODY2NmgtMC4yMTMzMzN2MC43NjhoLTAuMjEzMzMzdjAuODk2aC0wLjE3MDY2N3YwLjgxMDY2N2gtMC4xNzA2Njd2MC43MjUzMzNoLTAuMjU2djAuNTk3MzM0aC0wLjE3MDY2NnYwLjc2OGgtMC4xNzA2Njd2MC41OTczMzNoLTAuMjEzMzMzdjAuNTU0NjY3SDUwMy40NjY2Njd2MC42NGgtMC4xNzA2NjdsLTAuMDQyNjY3IDAuMTcwNjY2djAuNDI2NjY3aC0wLjEyOGwtMC4wNDI2NjYgMC4yNTZ2MC4yNTZoLTAuMDg1MzM0YTEuODc3MzMzIDEuODc3MzMzIDAgMCAwLTAuMDg1MzMzIDAuNDI2NjY3bC0wLjQyNjY2NyAwLjg5NnYwLjA4NTMzM2ExLjI4IDEuMjggMCAwIDAtMC4yMTMzMzMgMC4yOTg2Njd2MC4zNDEzMzNoLTAuMTcwNjY3djAuMzQxMzMzaC0wLjIxMzMzM3YwLjM0MTMzNGgtMC4xMjh2MC40MjY2NjZoLTAuMjU2djAuNTk3MzM0aC0wLjE3MDY2N3YwLjE3MDY2NmgtMC4xNzA2NjZ2MC4zNDEzMzRoLTAuMTcwNjY3djAuNDY5MzMzaC0wLjE3MDY2N3YwLjM0MTMzM2gtMC4yNTZ2MC40NjkzMzRoLTAuMTcwNjY2djAuMzQxMzMzaC0wLjIxMzMzNHYwLjM0MTMzM2gtMC4xMjh2MC40MjY2NjdoLTAuMjEzMzMzdjAuMzQxMzMzaC0wLjE3MDY2N3YwLjI1NmgtMC4xNzA2NjZ2MC4zNDEzMzRoLTAuMjU2VjMyLjQyNjY2N2gtMC4xNzA2Njd2MC4yNTZoLTAuMjEzMzMzdjAuMzQxMzMzaC0wLjE3MDY2N3YwLjQ2OTMzM2gtMC4yMTMzMzN2MC4xNzA2NjdoLTAuMTI4djAuMzQxMzMzaC0wLjI1NnYwLjE3MDY2N2gtMC4xNzA2Njd2MC40MjY2NjdoLTAuMTcwNjY3djAuMTcwNjY2aC0wLjE3MDY2NnYwLjM0MTMzNGgtMC4yMTMzMzR2MC4yNTZoLTAuMTI4bC0wLjA4NTMzMyAwLjE3MDY2NnYwLjE3MDY2N2gtMC4wODUzMzNsLTAuMDg1MzM0IDAuMTcwNjY3djAuMDQyNjY2aC0wLjA0MjY2NmEwLjY4MjY2NyAwLjY4MjY2NyAwIDAgMS0wLjE3MDY2NyAwLjI5ODY2N3YwLjEyOGgtMC4wNDI2NjdMNDk2LjIxMzMzMyAzNy4xMnYwLjA0MjY2N2MtMC4wODUzMzMgMC4wODUzMzMtMC4yOTg2NjcgMC4yNTYtMC4zODQgMC40MjY2NjZ2MC4wODUzMzRoLTAuMDQyNjY2bC0wLjEyOCAwLjEyOHYwLjEyOGgtMC4wODUzMzRsLTAuMTI4IDAuMTI4djAuMDQyNjY2aC0wLjA0MjY2NmwtMC4xMjggMC4xNzA2Njd2MC4xNzA2NjdoLTAuMTI4bC0wLjA4NTMzNCAwLjA4NTMzM3YwLjA4NTMzM2gtMC4wODUzMzNjMCAwLjA4NTMzMy0wLjA4NTMzMyAwLjA4NTMzMy0wLjA4NTMzMyAwLjEyOHYwLjEyOGgtMC4xNzA2NjdsLTAuMDg1MzMzIDAuMTI4VjM5LjI1MzMzM2gtMC4xMjh2MC4xNzA2NjdoLTAuMTcwNjY3VjM5LjY4aC0wLjE3MDY2N3YwLjM0MTMzM2gtMC4yMTMzMzNWMzkuNjhoLTAuMjEzMzMzdjAuMTcwNjY3aC0wLjE3MDY2N1Y0MC4xMDY2NjdoLTAuMjEzMzMzdjAuMzQxMzMzaC0wLjIxMzMzNHYwLjE3MDY2N2gtMC4xNzA2NjZ2MC4yNTZoLTAuMTcwNjY3djAuMTcwNjY2aC0wLjE3MDY2N1Y0MS4zODY2NjdoLTAuMjU2djAuMTcwNjY2aC0wLjE3MDY2NlY0MS44MTMzMzNoLTAuMjEzMzM0djAuMTcwNjY3aC0wLjE3MDY2NnYwLjIxMzMzM2gtMC4yMTMzMzR2MC40MjY2NjdoLTAuMDg1MzMzdjAuMTcwNjY3aC0wLjI1NnYwLjIxMzMzM2gtMC4xNzA2Njd2MC4wODUzMzNoLTAuMTcwNjY2djAuMTcwNjY3aC0wLjIxMzMzNHYwLjQyNjY2N2gtMC4xNzA2NjZ2MC4xNzA2NjZoLTAuMjEzMzM0djAuMTcwNjY3aC0wLjE3MDY2NnYwLjI1NmgtMC4yMTMzMzR2MC4xNzA2NjdoLTAuMjEzMzMzdjAuMTcwNjY2aC0wLjE3MDY2N3YwLjE3MDY2N2gtMC4xNzA2NjZ2MC40MjY2NjdoLTAuMTcwNjY3djAuMjEzMzMzaC0wLjI1NnYwLjE3MDY2N2gtMC4xNzA2Njd2MC4xNzA2NjZoLTAuMjEzMzMzdjAuMjU2aC0wLjE3MDY2N3YwLjE3MDY2N2gtMC4yMTMzMzN2MC4yOTg2NjdoLTAuMTcwNjY3djAuMTcwNjY2aC0wLjI1NlY0Ni45MzMzMzNoLTAuMDg1MzMzdjAuMTcwNjY3aC0wLjE3MDY2N3YwLjE3MDY2N2gtMC4yMTMzMzN2MC4xNzA2NjZoLTAuMTcwNjY3djAuMjU2aC0wLjIxMzMzM3YwLjE3MDY2N2gtMC4xMjhsLTAuMDQyNjY3IDAuMDg1MzMzdjAuMDg1MzM0aC0wLjA4NTMzM2wtMC4xNzA2NjcgMC4xNzA2NjYtMC4xNzA2NjYgMC4xMjh2MC4yNTZoLTAuMTcwNjY3djAuMjEzMzM0aC0wLjE3MDY2N3YwLjE3MDY2NmgtMC4xNzA2NjZ2MC4xNzA2NjdoLTAuMTI4bC0wLjEyOCAwLjEyOHYwLjEyOGgtMC4wODUzMzRsLTAuMDg1MzMzIDAuMDg1MzMzdjAuMTI4aC0wLjA4NTMzM2MtMC4yMTMzMzMgMC4yNTYtMC4yOTg2NjcgMC40MjY2NjctMC41OTczMzQgMC42ODI2NjdhMTUuNjE2IDE1LjYxNiAwIDAgMC0yLjE3NiAxLjc5MmwtMC45Mzg2NjYgMC43MjUzMzN2MC4wNDI2NjdoLTAuMDQyNjY3YTEyMC4zNjI2NjcgMTIwLjM2MjY2NyAwIDAgMS0yLjA5MDY2NyAxLjY2NHYwLjA0MjY2N2wtMy4xNTczMzMgMi42NDUzMzNWNTcuMTczMzMzaC0wLjA4NTMzM2MtMi40MzIgMi4wMDUzMzMtNC45OTIgNC4yNjY2NjctNy45MzYgNi43ODRWNjRoLTAuMDQyNjY3Yy03LjIxMDY2NyA2LjMxNDY2Ny0xNS43ODY2NjcgMTQuNDIxMzMzLTI1LjM4NjY2NyAyNC4yMzQ2NjdsLTAuNjQgMC42NC0wLjE3MDY2NiAwLjE3MDY2NkMzODQgMTQ5LjA3NzMzMyAyOTIuNTY1MzMzIDI3NC4xNzYgMjgyLjkyMjY2NyA0NzYuMzMwNjY3Yy0wLjg1MzMzMyAxNi43MjUzMzMtMC42ODI2NjcgMzIuOTgxMzMzIDAuMjU2IDQ4LjgxMDY2NnYwLjM4NGM0LjY1MDY2NyA3OS42NTg2NjcgMjkuNjUzMzMzIDE0Ny42NjkzMzMgNjAuOTI4IDIwMi45MjI2Njd2MC4wNDI2NjdjMTIuNDU4NjY3IDIyLjAxNiAyNS44OTg2NjcgNDIuMDI2NjY3IDM5LjUwOTMzMyA1OS45NDY2NjZ2MC4wNDI2NjdjNDcuMDE4NjY3IDYyLjA4IDk1LjAxODY2NyA5OC44NTg2NjcgMTA3LjI2NCAxMDcuNzc2IDE4LjgxNiA0My42NDggMTcuMDY2NjY3IDExOC41NzA2NjcgMTcuMDY2NjY3IDExOC41NzA2NjdsMjcuNDc3MzMzIDkuMTczMzMzcy01LjU4OTMzMy03Mi41NzYgMi4yNjEzMzMtMTA3LjYwNTMzM2MyLjQzMi0xMC45NjUzMzMgOC4xOTItMjAuMzA5MzMzIDE0Ljg5MDY2Ny0yOC4yNDUzMzRhMzU3LjU0NjY2NyAzNTcuNTQ2NjY3IDAgMCAwIDM0LjAwNTMzMy0yNy41MmMwLjc2OC0wLjgxMDY2NyAxLjE5NDY2Ny0xLjUzNiAxLjg3NzMzNC0yLjMwNCA2NC44OTYtNjAuNTAxMzMzIDE4Ni4xMTItMjA5LjQ5MzMzMyAxNDQuNTU0NjY2LTQ1Mi4yMjR6Ii8+PC9zdmc+;" parent="80" vertex="1">
                    <mxGeometry x="4" width="52" height="52" as="geometry"/>
                </mxCell>
                <mxCell id="yZXLWe79OLjicTHm0tPa-35" value="MongoDB" style="text;html=1;strokeColor=none;fillColor=none;align=center;verticalAlign=middle;whiteSpace=wrap;rounded=0;" parent="80" vertex="1">
                    <mxGeometry y="55" width="60" height="30" as="geometry"/>
                </mxCell>
                <mxCell id="90" style="edgeStyle=orthogonalEdgeStyle;shape=connector;curved=1;rounded=1;html=1;exitX=0.5;exitY=1;exitDx=0;exitDy=0;entryX=0.5;entryY=0;entryDx=0;entryDy=0;dashed=1;labelBackgroundColor=default;strokeColor=default;fontFamily=Helvetica;fontSize=11;fontColor=default;startArrow=none;startFill=0;endArrow=classic;" edge="1" parent="1" source="yZXLWe79OLjicTHm0tPa-51" target="yZXLWe79OLjicTHm0tPa-15">
                    <mxGeometry relative="1" as="geometry"/>
                </mxCell>
                <mxCell id="yZXLWe79OLjicTHm0tPa-51" value="external-service" style="swimlane;whiteSpace=wrap;html=1;rounded=0;" parent="1" vertex="1">
                    <mxGeometry x="350" y="160" width="320" height="160" as="geometry"/>
                </mxCell>
                <mxCell id="yZXLWe79OLjicTHm0tPa-56" value="" style="shape=image;verticalLabelPosition=bottom;labelBackgroundColor=default;verticalAlign=top;aspect=fixed;imageAspect=0;image=https://www.niegobrand.com/uploads/image/20211122/1637552117.png;" parent="yZXLWe79OLjicTHm0tPa-51" vertex="1">
                    <mxGeometry x="41" y="50" width="120" height="60" as="geometry"/>
                </mxCell>
                <mxCell id="yZXLWe79OLjicTHm0tPa-57" value="飞书会议" style="text;html=1;strokeColor=none;fillColor=none;align=center;verticalAlign=middle;whiteSpace=wrap;rounded=0;" parent="yZXLWe79OLjicTHm0tPa-51" vertex="1">
                    <mxGeometry x="67" y="130" width="60" height="30" as="geometry"/>
                </mxCell>
                <mxCell id="yZXLWe79OLjicTHm0tPa-58" value="" style="shape=image;verticalLabelPosition=bottom;labelBackgroundColor=default;verticalAlign=top;aspect=fixed;imageAspect=0;image=data:image/svg+xml,PHN2ZyB4bWxuczp4bGluaz0iaHR0cDovL3d3dy53My5vcmcvMTk5OS94bGluayIgeG1sbnM9Imh0dHA6Ly93d3cudzMub3JnLzIwMDAvc3ZnIiBoZWlnaHQ9IjIwMCIgd2lkdGg9IjIwMCIgdmVyc2lvbj0iMS4xIiB2aWV3Qm94PSIwIDAgMTAyNCAxMDI0IiBjbGFzcz0iaWNvbiI+PHBhdGggZmlsbD0iIzAwQzFERSIgZD0iTTYyMC43NTcgMTcwLjY2N2MtMTU1LjQzNCAwLTI4NS43NiAxMDcuMi0zMjEuMTk0IDI1MS42NjlhMTgyLjMzNiAxODIuMzM2IDAgMCAwLTkuNTU4LTAuMjU2Yy0xMTMuMDI0IDAtMjA0LjY3MiA5MS42MjctMjA0LjY3MiAyMDQuNjcyYTIwMy43OTcgMjAzLjc5NyAwIDAgMCA1OS45NDcgMTQ0LjY0IDIwMy43MzMgMjAzLjczMyAwIDAgMCAxNDQuNzI1IDU5Ljg2MSAyMDQuNDM3IDIwNC40MzcgMCAwIDAgMTQ0Ljc5LTYwLjIwMmMzMi4xMDYtMzIuMTA3IDUwLjEzMy03NS4wOTQgNTUuMzE3LTEyMi44MzhMNDE2IDY0Mi4zOWMtMTYuNzktMi4wOS0yMi4xODctMTQuODA1LTExLjk2OC0yOC4zNzNMNTI5LjYgNDU4LjY2NmMxMC4xNTUtMTMuNTQ2IDIzLjk1Ny0xMS44ODIgMzAuNjEzIDMuNzU1bDcxLjE5IDE3My45NzRjNi42NTYgMTUuNjM3LTEuNzUgMjYuNjg4LTE4LjU2IDI0LjYxOGwtNTUuMTI2LTUuMDc3Yy02LjI1IDU3LjY0My0zMi4xOTIgMTA4LjUyMy02OC40NTggMTQ4Ljg2NEEzMjkuOTYzIDMyOS45NjMgMCAwIDAgNjIwLjc1NyA4MzJjMTgyLjYxNCAwIDMzMC42NjctMTQ4LjA1MyAzMzAuNjY3LTMzMC42NjcgMC0xODIuNjEzLTE0OC4wNTMtMzMwLjY2Ni0zMzAuNjY3LTMzMC42NjZ6Ii8+PC9zdmc+;" parent="yZXLWe79OLjicTHm0tPa-51" vertex="1">
                    <mxGeometry x="212" y="60" width="70" height="70" as="geometry"/>
                </mxCell>
                <mxCell id="yZXLWe79OLjicTHm0tPa-59" value="OSS" style="text;html=1;strokeColor=none;fillColor=none;align=center;verticalAlign=middle;whiteSpace=wrap;rounded=0;" parent="yZXLWe79OLjicTHm0tPa-51" vertex="1">
                    <mxGeometry x="215" y="130" width="60" height="30" as="geometry"/>
                </mxCell>
                <mxCell id="16" value="" style="group" vertex="1" connectable="0" parent="1">
                    <mxGeometry x="-574" y="400" width="160" height="210" as="geometry"/>
                </mxCell>
                <mxCell id="4" value="" style="group" vertex="1" connectable="0" parent="16">
                    <mxGeometry width="120" height="120" as="geometry"/>
                </mxCell>
                <mxCell id="3" value="" style="whiteSpace=wrap;html=1;aspect=fixed;rounded=0;" vertex="1" parent="4">
                    <mxGeometry width="120" height="120" as="geometry"/>
                </mxCell>
                <mxCell id="yZXLWe79OLjicTHm0tPa-61" value="" style="shape=image;verticalLabelPosition=bottom;labelBackgroundColor=default;verticalAlign=top;aspect=fixed;imageAspect=0;image=data:image/svg+xml,PHN2ZyB4bWxuczp4bGluaz0iaHR0cDovL3d3dy53My5vcmcvMTk5OS94bGluayIgeG1sbnM9Imh0dHA6Ly93d3cudzMub3JnLzIwMDAvc3ZnIiBoZWlnaHQ9IjIwMCIgd2lkdGg9IjIwMCIgdmVyc2lvbj0iMS4xIiB2aWV3Qm94PSIwIDAgMTAyNCAxMDI0IiBjbGFzcz0iaWNvbiI+PHBhdGggZmlsbD0iIzNCM0Y1MSIgZD0iTTUxMi4wMDEyNzQgMTUuMDQ1MDM5YTQ5Ny44ODA4NjkgNDk3Ljg4MDg2OSAwIDAgMSA0OTYuOTk2OTkgNDk3LjA4NjE0MmMwIDEzNy4yODUxODItNTUuODg2ODQ5IDI2MS41NzMyNzQtMTQ1LjY3NTY2IDM1MS42NTI0NjYtODkuODEzMDEgOTAuMDk4Mjk2LTIxNC4zMzU0NDQgMTQ1LjE2NzQ5My0zNTEuMzIxMzMgMTQ1LjE2NzQ5NC0xMzcuMjYyMjU3IDAtMjYxLjUyOTk3Mi01NS4wNjkxOTctMzUxLjMxNzUxLTE0NS4xNzM4NjItODkuNzg4ODExLTkwLjA3OTE5Mi0xNDUuNjc1NjYtMjE0LjM2NzI4NC0xNDUuNjc1NjYtMzUxLjY0NjA5OGE0OTcuODgwODY5IDQ5Ny44ODA4NjkgMCAwIDEgNDk2Ljk5MzE3LTQ5Ny4wODYxNDJ6TTQ4OS4yMTUyOTMgOTMyLjE0NDEzNlY3NzEuNTE4OTU3YTQwNS4xMTgyMDEgNDA1LjExODIwMSAwIDAgMC0xMjkuMTIzOTUyIDI2LjU5NTMxOSAxMzcuMTM4NzE4IDEzNy4xMzg3MTggMCAwIDAtMTcuMTAxOTAzIDYuNTExOTE3YzMuNTMwNDIgNy4wNjIxMTMgNi43ODU3NDIgMTQuMDk4NzU0IDEwLjU3MDg4MSAyMC44ODcwNDMgMjUuNTE0MDMyIDQ1LjYwMjUyNyA1NS4zMzUzOCA4MC44ODc2MiA4OC45ODc3MTcgMTAxLjIyMzE5M2EzNzIuNzQ0NTU5IDM3Mi43NDQ1NTkgMCAwIDAgNDYuNjcxMDc4IDUuNDA4OTh6IG0zMjAuMTIwNjc0LTcxNy4xMDMxMTdhMTI4LjczNjc3OCAxMjguNzM2Nzc4IDAgMCAwLTEwLjU5MTI1OS0xMC4wNjE0NDEgNDQxLjIyMjIxOCA0NDEuMjIyMjE4IDAgMCAxLTU4LjMxNTYwNCAzNi45MzQ0MDRjMjcuMTQxNjkzIDcwLjc5NTYxMiA0My45MzkyMDUgMTU2LjAxNjAyIDQ2LjY3MjM1MSAyNDcuNDQ3Nzc1aDE0NC44NDM5OTlhNDE5LjYyOTYwMSA0MTkuNjI5NjAxIDAgMCAwLTEyMi42MDk0ODctMjc0LjMyMDczOHogbS00Ni42NzIzNTItNDAuNDEzODhhNDE1LjMwMDYzNCA0MTUuMzAwNjM0IDAgMCAwLTg1LjcxMzI5LTQ5LjQxNTY4NyA0MzQuMzg0MjU5IDQzNC4zODQyNTkgMCAwIDEgMzMuNjIzMDQ0IDUxLjU2Mjk3NmMzLjgwNTUxNyA3LjA2MjExMyA3Ljg2MTkzNCAxNS4yMDE2OTIgMTEuOTQyNTQ5IDIzLjMzOTk5NyAxMy41NzE0ODMtOC4xMzgzMDUgMjcuMTE3NDk1LTE2LjU1NjgwMiA0MC4xMzc1MDktMjUuNDkzNjU0eiBtLTE4MS4yMzMzMDItNzcuMzU3MmMtMTUuMTcyMzk5LTIuNDA0NTU3LTMwLjkyMTczOC00LjA1NjQxNy00Ni42NDY4OC01LjEzMzg4M1YyNTMuMzA2MzM2YTQyOS4wMjI0MDIgNDI5LjAyMjQwMiAwIDAgMCAxMjkuMTI3NzczLTI2LjU4ODk1MWM1Ljk4NTkyMS0yLjE3Nzg1NiAxMS4zOTIzNTMtNC4zNTY5ODYgMTcuMDc2NDMxLTYuNzg3MDE1LTIuOTU0NzUyLTcuMzM3MjExLTcuMDM2NjQxLTE0LjM3Mzg1MS0xMC41NDE1ODgtMjAuODg3MDQzLTI0Ljk4OTMwOS00Ni4xNTUyNy01NS42MTA0NzctODAuODg4ODkzLTg5LjAxMzE4OS0xMDEuNzc0NjYyeiBtLTkyLjIxNzU2Ny01LjEzMzg4M2MtMTUuNzIzODY4IDEuMDc3NDY2LTMxLjQ3MzIwNyAyLjcyOTMyNS00Ni42NzEwNzggNS4xMzM4ODMtMzMuNjUyMzM3IDIwLjg4NzA0My02My40NzM2ODUgNTUuNjE5MzkzLTg4Ljk4NzcxNyAxMDEuNzc0NjYyLTMuNzgxMzE5IDYuNTEwNjQ0LTcuMDM2NjQxIDEzLjU0NzI4NS0xMC44MTY2ODYgMjAuODg3MDQyIDUuNjg0MDc4IDIuNDMwMDI5IDExLjM5MjM1MyA0LjYwOTE1OSAxNy4zNTE1MjkgNi43ODcwMTZhNDI4Ljg1OTM4MiA0MjguODU5MzgyIDAgMCAwIDEyOS4xMjM5NTIgMjYuNTk1MzE4VjkyLjEzMDk2MnogbS0xNDIuMTQxNDE5IDMzLjA3NTM5NmE0MTQuODQ1OTU5IDQxNC44NDU5NTkgMCAwIDAtODUuNzMyMzk1IDQ5LjQxNTY4N2MxMy4wMjAwMTQgOC45NDA2NzMgMjYuNTkxNDk4IDE3LjM1NTM0OSA0MC40MTI2MDcgMjUuNDkzNjU0YTIzMy4yNjM2OSAyMzMuMjYzNjkgMCAwIDEgMTEuNjY3NDUxLTIzLjMzOTk5N2MxMC4wNDEwNjQtMTkuMDA3MjA5IDIxLjcwODUxNS0zNS44MTEwODkgMzMuNjUyMzM3LTUxLjU2Mjk3NnogbS0xMjIuMDg4NTg1IDc5Ljc2MzAzMWMtMy4yNTUzMjIgMy4wMDQ0MjMtNy4wNjA4MzkgNi41MzYxMTYtMTAuMzE2MTYyIDEwLjA2MTQ0MWE0MTkuNjI4MzI4IDQxOS42MjgzMjggMCAwIDAtMTIyLjYxNDU4MSAyNzQuMzI0NTZoMTQ0Ljg3NDU2NWMyLjcwMzg1My05MS40MzA0ODIgMTkuNTI5Mzg1LTE3Ni42NDgzNDIgNDYuMzcwNTA4LTI0Ny40NDc3NzVhNDc4LjQ3NzU3IDQ3OC40Nzc1NyAwIDAgMS01OC4zMTQzMy0zNi45MzQ0MDV6TTkyLjA1MTk5OSA1MzUuMTg5NzEyYTQyMC43Nzk2NjIgNDIwLjc3OTY2MiAwIDAgMCAxMjIuNjE0NTgxIDI3NC4zMTk0NjRsMTAuMzE2MTYyIDEwLjI5MzIzN2E0MjUuMzE4NzczIDQyNS4zMTg3NzMgMCAwIDEgNTguMzE4MTUxLTM3LjQxMzI3OGMtMjYuODQxMTIzLTcxLjA5NjE4Mi00My42NjY2NTUtMTU1Ljc0MjE5NS00Ni4zNzA1MDgtMjQ3LjE5ODE1SDkyLjA1MTk5OXogbTE2OS4yODY5MzMgMzE0LjQ4ODgxM2E0MTUuODgyNjcgNDE1Ljg4MjY3IDAgMCAwIDg1LjczMjM5NSA0OS4zODM4NDcgMzYwLjUzMzI4IDM2MC41MzMyOCAwIDAgMS0zMy42NTIzMzctNTEuNTYyOTc2Yy00LjA3NTUyMS03LjMxMzAxMi04LjEzNzAzMS0xNS4xNzYyMTktMTEuNjY3NDUxLTIyLjc4ODUyOGE0MTYuNjM1MzY3IDQxNi42MzUzNjcgMCAwIDAtNDAuNDEyNjA3IDI0Ljk2MjU2M3ogbTI3My40NDE5NTQgODIuNDY1NjExYTM3MS43ODA0NDMgMzcxLjc4MDQ0MyAwIDAgMCA0Ni42NDY4NzktNS40MDg5OGMzMy40MDI3MTEtMjAuMzM1NTc0IDY0LjAyMzg4LTU1LjYyMDY2NiA4OS4wMTMxODktMTAxLjIyMzE5NCAzLjUwNDk0OC02Ljc4NzAxNSA3LjU4NjgzNi0xMy44MjM2NTYgMTAuNTQxNTg5LTIwLjg4NzA0MmExMzMuODg1OTQzIDEzMy44ODU5NDMgMCAwIDAtMTcuMDc2NDMxLTYuNTExOTE4IDQwNS4yNTk1NzEgNDA1LjI1OTU3MSAwIDAgMC0xMjkuMTIwMTMyLTI2LjU5NDA0NXYxNjAuNjI1MTc5eiBtMTQyLjE2OTQzOS0zMy4wODE3NjRhNDE2LjMzOTg5MiA0MTYuMzM5ODkyIDAgMCAwIDg1LjcxMzI5LTQ5LjM4Mzg0NyAzOTAuNjc4MTIyIDM5MC42NzgxMjIgMCAwIDAtNDAuMTM3NTA5LTI0Ljk2MjU2M2MtNC4wNzU1MjEgNy42MTIzMDgtOC4xMzcwMzEgMTUuNDc1NTE2LTExLjk0MjU0OCAyMi43ODg1MjgtMTAuNTkyNTMzIDE4LjcwNjYzOS0yMS42ODQzMTYgMzYuMzYyNTU4LTMzLjYyMzA0NSA1MS41NjI5NzZ6IG0xMjEuNzg5Mjg4LTc5LjI1OTk1OWwxMC41OTEyNTktMTAuMjkzMjM3YTQyMC43ODA5MzYgNDIwLjc4MDkzNiAwIDAgMCAxMjIuNjE0NTgyLTI3NC4zMTk0NjRINzg3LjEwMTQ1NWMtMi43MjkzMjUgOTEuNDU1OTU0LTE5LjUzMDY1OCAxNzYuMTAxOTY4LTQ2LjY3MjM1MSAyNDcuMTk4MTQ5YTM5NS42MjA5NjUgMzk1LjYyMDk2NSAwIDAgMSA1OC4zMTU2MDQgMzcuNDE0NTUyeiBtLTk5LjgyNDc4LTU1OC4xMDU1OTlhMjAzLjYyNDQ2NyAyMDMuNjI0NDY3IDAgMCAxLTE5LjAwNDY2MiA3LjMzNzIxIDQ2MC42MTc4NzUgNDYwLjYxNzg3NSAwIDAgMS0xNDUuMTI0MTkxIDI5LjgyNjQ0MnYxOTAuNTAwMDE4aDIwNi4xOTU4NjZjLTIuNDUyOTU0LTg0LjM5Mzg0MS0xNy4zNzU3MjctMTYyLjU1MzQwOS00Mi4wNjQ0NjYtMjI3LjY2MzY3eiBtLTIwOS42OTk1NCAzNy4xNjM2NTJhNDU2LjA2MjIwNyA0NTYuMDYyMjA3IDAgMCAxLTE0NC44NzMyOTItMjkuODI2NDQyIDE4Ny45Mjk4OTIgMTg3LjkyOTg5MiAwIDAgMS0xOS41MzA2NTgtNy4zMzcyMWMtMjQuNDEyMzY4IDY1LjExMDI2MS0zOS42MDg5NjUgMTQzLjI2OTgyOS00Mi4wNjQ0NjYgMjI3LjY2MzY3SDQ4OS4yMTUyOTNWMjk4Ljg2MDQ2NnogbTAgNDI2LjU1NDE2NXYtMTkwLjIyNDkxOUgyODIuNzQ2ODc3YzIuNDU0MjI4IDg0LjE0NDIxNSAxNy42NTIwOTggMTYxLjk3Nzc0MiA0Mi4wNjQ0NjYgMjI3LjM4ODU3MiA2LjUxMDY0NC0yLjQyODc1NiAxMy4wMjAwMTQtNS4xNTgwODEgMTkuNTMwNjU4LTcuMzM3MjEgNDUuMDE5MjE4LTE3LjM1NDA3NiA5My44NjQzMzItMjcuMzk2NDEzIDE0NC44NzMyOTItMjkuODI2NDQzeiBtNDUuNTcwNjg3IDBhNDY1LjM2NTg1NyA0NjUuMzY1ODU3IDAgMCAxIDE0NC44NzQ1NjYgMjkuODI2NDQzYzYuNTA5MzcgMi4xNzkxMyAxMi43NDM2NDMgNC45MDg0NTUgMTkuMjU0Mjg3IDcuMzM3MjEgMjQuNjg4NzM5LTY1LjQxMDgzMSAzOS42MDg5NjUtMTQzLjI0NDM1NyA0Mi4wNjQ0NjYtMjI3LjM4ODU3Mkg1MzQuNzg1OTh2MTkwLjIyNDkxOXoiLz48L3N2Zz4=;" parent="4" vertex="1">
                    <mxGeometry x="15" y="15" width="90" height="90" as="geometry"/>
                </mxCell>
                <mxCell id="5" value="" style="group" vertex="1" connectable="0" parent="16">
                    <mxGeometry x="20" y="20" width="120" height="120" as="geometry"/>
                </mxCell>
                <mxCell id="6" value="" style="whiteSpace=wrap;html=1;aspect=fixed;rounded=0;" vertex="1" parent="5">
                    <mxGeometry width="120" height="120" as="geometry"/>
                </mxCell>
                <mxCell id="7" value="" style="shape=image;verticalLabelPosition=bottom;labelBackgroundColor=default;verticalAlign=top;aspect=fixed;imageAspect=0;image=data:image/svg+xml,PHN2ZyB4bWxuczp4bGluaz0iaHR0cDovL3d3dy53My5vcmcvMTk5OS94bGluayIgeG1sbnM9Imh0dHA6Ly93d3cudzMub3JnLzIwMDAvc3ZnIiBoZWlnaHQ9IjIwMCIgd2lkdGg9IjIwMCIgdmVyc2lvbj0iMS4xIiB2aWV3Qm94PSIwIDAgMTAyNCAxMDI0IiBjbGFzcz0iaWNvbiI+PHBhdGggZmlsbD0iIzNCM0Y1MSIgZD0iTTUxMi4wMDEyNzQgMTUuMDQ1MDM5YTQ5Ny44ODA4NjkgNDk3Ljg4MDg2OSAwIDAgMSA0OTYuOTk2OTkgNDk3LjA4NjE0MmMwIDEzNy4yODUxODItNTUuODg2ODQ5IDI2MS41NzMyNzQtMTQ1LjY3NTY2IDM1MS42NTI0NjYtODkuODEzMDEgOTAuMDk4Mjk2LTIxNC4zMzU0NDQgMTQ1LjE2NzQ5My0zNTEuMzIxMzMgMTQ1LjE2NzQ5NC0xMzcuMjYyMjU3IDAtMjYxLjUyOTk3Mi01NS4wNjkxOTctMzUxLjMxNzUxLTE0NS4xNzM4NjItODkuNzg4ODExLTkwLjA3OTE5Mi0xNDUuNjc1NjYtMjE0LjM2NzI4NC0xNDUuNjc1NjYtMzUxLjY0NjA5OGE0OTcuODgwODY5IDQ5Ny44ODA4NjkgMCAwIDEgNDk2Ljk5MzE3LTQ5Ny4wODYxNDJ6TTQ4OS4yMTUyOTMgOTMyLjE0NDEzNlY3NzEuNTE4OTU3YTQwNS4xMTgyMDEgNDA1LjExODIwMSAwIDAgMC0xMjkuMTIzOTUyIDI2LjU5NTMxOSAxMzcuMTM4NzE4IDEzNy4xMzg3MTggMCAwIDAtMTcuMTAxOTAzIDYuNTExOTE3YzMuNTMwNDIgNy4wNjIxMTMgNi43ODU3NDIgMTQuMDk4NzU0IDEwLjU3MDg4MSAyMC44ODcwNDMgMjUuNTE0MDMyIDQ1LjYwMjUyNyA1NS4zMzUzOCA4MC44ODc2MiA4OC45ODc3MTcgMTAxLjIyMzE5M2EzNzIuNzQ0NTU5IDM3Mi43NDQ1NTkgMCAwIDAgNDYuNjcxMDc4IDUuNDA4OTh6IG0zMjAuMTIwNjc0LTcxNy4xMDMxMTdhMTI4LjczNjc3OCAxMjguNzM2Nzc4IDAgMCAwLTEwLjU5MTI1OS0xMC4wNjE0NDEgNDQxLjIyMjIxOCA0NDEuMjIyMjE4IDAgMCAxLTU4LjMxNTYwNCAzNi45MzQ0MDRjMjcuMTQxNjkzIDcwLjc5NTYxMiA0My45MzkyMDUgMTU2LjAxNjAyIDQ2LjY3MjM1MSAyNDcuNDQ3Nzc1aDE0NC44NDM5OTlhNDE5LjYyOTYwMSA0MTkuNjI5NjAxIDAgMCAwLTEyMi42MDk0ODctMjc0LjMyMDczOHogbS00Ni42NzIzNTItNDAuNDEzODhhNDE1LjMwMDYzNCA0MTUuMzAwNjM0IDAgMCAwLTg1LjcxMzI5LTQ5LjQxNTY4NyA0MzQuMzg0MjU5IDQzNC4zODQyNTkgMCAwIDEgMzMuNjIzMDQ0IDUxLjU2Mjk3NmMzLjgwNTUxNyA3LjA2MjExMyA3Ljg2MTkzNCAxNS4yMDE2OTIgMTEuOTQyNTQ5IDIzLjMzOTk5NyAxMy41NzE0ODMtOC4xMzgzMDUgMjcuMTE3NDk1LTE2LjU1NjgwMiA0MC4xMzc1MDktMjUuNDkzNjU0eiBtLTE4MS4yMzMzMDItNzcuMzU3MmMtMTUuMTcyMzk5LTIuNDA0NTU3LTMwLjkyMTczOC00LjA1NjQxNy00Ni42NDY4OC01LjEzMzg4M1YyNTMuMzA2MzM2YTQyOS4wMjI0MDIgNDI5LjAyMjQwMiAwIDAgMCAxMjkuMTI3NzczLTI2LjU4ODk1MWM1Ljk4NTkyMS0yLjE3Nzg1NiAxMS4zOTIzNTMtNC4zNTY5ODYgMTcuMDc2NDMxLTYuNzg3MDE1LTIuOTU0NzUyLTcuMzM3MjExLTcuMDM2NjQxLTE0LjM3Mzg1MS0xMC41NDE1ODgtMjAuODg3MDQzLTI0Ljk4OTMwOS00Ni4xNTUyNy01NS42MTA0NzctODAuODg4ODkzLTg5LjAxMzE4OS0xMDEuNzc0NjYyeiBtLTkyLjIxNzU2Ny01LjEzMzg4M2MtMTUuNzIzODY4IDEuMDc3NDY2LTMxLjQ3MzIwNyAyLjcyOTMyNS00Ni42NzEwNzggNS4xMzM4ODMtMzMuNjUyMzM3IDIwLjg4NzA0My02My40NzM2ODUgNTUuNjE5MzkzLTg4Ljk4NzcxNyAxMDEuNzc0NjYyLTMuNzgxMzE5IDYuNTEwNjQ0LTcuMDM2NjQxIDEzLjU0NzI4NS0xMC44MTY2ODYgMjAuODg3MDQyIDUuNjg0MDc4IDIuNDMwMDI5IDExLjM5MjM1MyA0LjYwOTE1OSAxNy4zNTE1MjkgNi43ODcwMTZhNDI4Ljg1OTM4MiA0MjguODU5MzgyIDAgMCAwIDEyOS4xMjM5NTIgMjYuNTk1MzE4VjkyLjEzMDk2MnogbS0xNDIuMTQxNDE5IDMzLjA3NTM5NmE0MTQuODQ1OTU5IDQxNC44NDU5NTkgMCAwIDAtODUuNzMyMzk1IDQ5LjQxNTY4N2MxMy4wMjAwMTQgOC45NDA2NzMgMjYuNTkxNDk4IDE3LjM1NTM0OSA0MC40MTI2MDcgMjUuNDkzNjU0YTIzMy4yNjM2OSAyMzMuMjYzNjkgMCAwIDEgMTEuNjY3NDUxLTIzLjMzOTk5N2MxMC4wNDEwNjQtMTkuMDA3MjA5IDIxLjcwODUxNS0zNS44MTEwODkgMzMuNjUyMzM3LTUxLjU2Mjk3NnogbS0xMjIuMDg4NTg1IDc5Ljc2MzAzMWMtMy4yNTUzMjIgMy4wMDQ0MjMtNy4wNjA4MzkgNi41MzYxMTYtMTAuMzE2MTYyIDEwLjA2MTQ0MWE0MTkuNjI4MzI4IDQxOS42MjgzMjggMCAwIDAtMTIyLjYxNDU4MSAyNzQuMzI0NTZoMTQ0Ljg3NDU2NWMyLjcwMzg1My05MS40MzA0ODIgMTkuNTI5Mzg1LTE3Ni42NDgzNDIgNDYuMzcwNTA4LTI0Ny40NDc3NzVhNDc4LjQ3NzU3IDQ3OC40Nzc1NyAwIDAgMS01OC4zMTQzMy0zNi45MzQ0MDV6TTkyLjA1MTk5OSA1MzUuMTg5NzEyYTQyMC43Nzk2NjIgNDIwLjc3OTY2MiAwIDAgMCAxMjIuNjE0NTgxIDI3NC4zMTk0NjRsMTAuMzE2MTYyIDEwLjI5MzIzN2E0MjUuMzE4NzczIDQyNS4zMTg3NzMgMCAwIDEgNTguMzE4MTUxLTM3LjQxMzI3OGMtMjYuODQxMTIzLTcxLjA5NjE4Mi00My42NjY2NTUtMTU1Ljc0MjE5NS00Ni4zNzA1MDgtMjQ3LjE5ODE1SDkyLjA1MTk5OXogbTE2OS4yODY5MzMgMzE0LjQ4ODgxM2E0MTUuODgyNjcgNDE1Ljg4MjY3IDAgMCAwIDg1LjczMjM5NSA0OS4zODM4NDcgMzYwLjUzMzI4IDM2MC41MzMyOCAwIDAgMS0zMy42NTIzMzctNTEuNTYyOTc2Yy00LjA3NTUyMS03LjMxMzAxMi04LjEzNzAzMS0xNS4xNzYyMTktMTEuNjY3NDUxLTIyLjc4ODUyOGE0MTYuNjM1MzY3IDQxNi42MzUzNjcgMCAwIDAtNDAuNDEyNjA3IDI0Ljk2MjU2M3ogbTI3My40NDE5NTQgODIuNDY1NjExYTM3MS43ODA0NDMgMzcxLjc4MDQ0MyAwIDAgMCA0Ni42NDY4NzktNS40MDg5OGMzMy40MDI3MTEtMjAuMzM1NTc0IDY0LjAyMzg4LTU1LjYyMDY2NiA4OS4wMTMxODktMTAxLjIyMzE5NCAzLjUwNDk0OC02Ljc4NzAxNSA3LjU4NjgzNi0xMy44MjM2NTYgMTAuNTQxNTg5LTIwLjg4NzA0MmExMzMuODg1OTQzIDEzMy44ODU5NDMgMCAwIDAtMTcuMDc2NDMxLTYuNTExOTE4IDQwNS4yNTk1NzEgNDA1LjI1OTU3MSAwIDAgMC0xMjkuMTIwMTMyLTI2LjU5NDA0NXYxNjAuNjI1MTc5eiBtMTQyLjE2OTQzOS0zMy4wODE3NjRhNDE2LjMzOTg5MiA0MTYuMzM5ODkyIDAgMCAwIDg1LjcxMzI5LTQ5LjM4Mzg0NyAzOTAuNjc4MTIyIDM5MC42NzgxMjIgMCAwIDAtNDAuMTM3NTA5LTI0Ljk2MjU2M2MtNC4wNzU1MjEgNy42MTIzMDgtOC4xMzcwMzEgMTUuNDc1NTE2LTExLjk0MjU0OCAyMi43ODg1MjgtMTAuNTkyNTMzIDE4LjcwNjYzOS0yMS42ODQzMTYgMzYuMzYyNTU4LTMzLjYyMzA0NSA1MS41NjI5NzZ6IG0xMjEuNzg5Mjg4LTc5LjI1OTk1OWwxMC41OTEyNTktMTAuMjkzMjM3YTQyMC43ODA5MzYgNDIwLjc4MDkzNiAwIDAgMCAxMjIuNjE0NTgyLTI3NC4zMTk0NjRINzg3LjEwMTQ1NWMtMi43MjkzMjUgOTEuNDU1OTU0LTE5LjUzMDY1OCAxNzYuMTAxOTY4LTQ2LjY3MjM1MSAyNDcuMTk4MTQ5YTM5NS42MjA5NjUgMzk1LjYyMDk2NSAwIDAgMSA1OC4zMTU2MDQgMzcuNDE0NTUyeiBtLTk5LjgyNDc4LTU1OC4xMDU1OTlhMjAzLjYyNDQ2NyAyMDMuNjI0NDY3IDAgMCAxLTE5LjAwNDY2MiA3LjMzNzIxIDQ2MC42MTc4NzUgNDYwLjYxNzg3NSAwIDAgMS0xNDUuMTI0MTkxIDI5LjgyNjQ0MnYxOTAuNTAwMDE4aDIwNi4xOTU4NjZjLTIuNDUyOTU0LTg0LjM5Mzg0MS0xNy4zNzU3MjctMTYyLjU1MzQwOS00Mi4wNjQ0NjYtMjI3LjY2MzY3eiBtLTIwOS42OTk1NCAzNy4xNjM2NTJhNDU2LjA2MjIwNyA0NTYuMDYyMjA3IDAgMCAxLTE0NC44NzMyOTItMjkuODI2NDQyIDE4Ny45Mjk4OTIgMTg3LjkyOTg5MiAwIDAgMS0xOS41MzA2NTgtNy4zMzcyMWMtMjQuNDEyMzY4IDY1LjExMDI2MS0zOS42MDg5NjUgMTQzLjI2OTgyOS00Mi4wNjQ0NjYgMjI3LjY2MzY3SDQ4OS4yMTUyOTNWMjk4Ljg2MDQ2NnogbTAgNDI2LjU1NDE2NXYtMTkwLjIyNDkxOUgyODIuNzQ2ODc3YzIuNDU0MjI4IDg0LjE0NDIxNSAxNy42NTIwOTggMTYxLjk3Nzc0MiA0Mi4wNjQ0NjYgMjI3LjM4ODU3MiA2LjUxMDY0NC0yLjQyODc1NiAxMy4wMjAwMTQtNS4xNTgwODEgMTkuNTMwNjU4LTcuMzM3MjEgNDUuMDE5MjE4LTE3LjM1NDA3NiA5My44NjQzMzItMjcuMzk2NDEzIDE0NC44NzMyOTItMjkuODI2NDQzeiBtNDUuNTcwNjg3IDBhNDY1LjM2NTg1NyA0NjUuMzY1ODU3IDAgMCAxIDE0NC44NzQ1NjYgMjkuODI2NDQzYzYuNTA5MzcgMi4xNzkxMyAxMi43NDM2NDMgNC45MDg0NTUgMTkuMjU0Mjg3IDcuMzM3MjEgMjQuNjg4NzM5LTY1LjQxMDgzMSAzOS42MDg5NjUtMTQzLjI0NDM1NyA0Mi4wNjQ0NjYtMjI3LjM4ODU3Mkg1MzQuNzg1OTh2MTkwLjIyNDkxOXoiLz48L3N2Zz4=;" vertex="1" parent="5">
                    <mxGeometry x="15" y="15" width="90" height="90" as="geometry"/>
                </mxCell>
                <mxCell id="8" value="" style="group;strokeColor=default;" vertex="1" connectable="0" parent="16">
                    <mxGeometry x="40" y="45" width="120" height="120" as="geometry"/>
                </mxCell>
                <mxCell id="9" value="" style="whiteSpace=wrap;html=1;aspect=fixed;rounded=0;" vertex="1" parent="8">
                    <mxGeometry width="120" height="120" as="geometry"/>
                </mxCell>
                <mxCell id="10" value="" style="shape=image;verticalLabelPosition=bottom;labelBackgroundColor=default;verticalAlign=top;aspect=fixed;imageAspect=0;image=data:image/svg+xml,PHN2ZyB4bWxuczp4bGluaz0iaHR0cDovL3d3dy53My5vcmcvMTk5OS94bGluayIgeG1sbnM9Imh0dHA6Ly93d3cudzMub3JnLzIwMDAvc3ZnIiBoZWlnaHQ9IjIwMCIgd2lkdGg9IjIwMCIgdmVyc2lvbj0iMS4xIiB2aWV3Qm94PSIwIDAgMTAyNCAxMDI0IiBjbGFzcz0iaWNvbiI+PHBhdGggZmlsbD0iIzNCM0Y1MSIgZD0iTTUxMi4wMDEyNzQgMTUuMDQ1MDM5YTQ5Ny44ODA4NjkgNDk3Ljg4MDg2OSAwIDAgMSA0OTYuOTk2OTkgNDk3LjA4NjE0MmMwIDEzNy4yODUxODItNTUuODg2ODQ5IDI2MS41NzMyNzQtMTQ1LjY3NTY2IDM1MS42NTI0NjYtODkuODEzMDEgOTAuMDk4Mjk2LTIxNC4zMzU0NDQgMTQ1LjE2NzQ5My0zNTEuMzIxMzMgMTQ1LjE2NzQ5NC0xMzcuMjYyMjU3IDAtMjYxLjUyOTk3Mi01NS4wNjkxOTctMzUxLjMxNzUxLTE0NS4xNzM4NjItODkuNzg4ODExLTkwLjA3OTE5Mi0xNDUuNjc1NjYtMjE0LjM2NzI4NC0xNDUuNjc1NjYtMzUxLjY0NjA5OGE0OTcuODgwODY5IDQ5Ny44ODA4NjkgMCAwIDEgNDk2Ljk5MzE3LTQ5Ny4wODYxNDJ6TTQ4OS4yMTUyOTMgOTMyLjE0NDEzNlY3NzEuNTE4OTU3YTQwNS4xMTgyMDEgNDA1LjExODIwMSAwIDAgMC0xMjkuMTIzOTUyIDI2LjU5NTMxOSAxMzcuMTM4NzE4IDEzNy4xMzg3MTggMCAwIDAtMTcuMTAxOTAzIDYuNTExOTE3YzMuNTMwNDIgNy4wNjIxMTMgNi43ODU3NDIgMTQuMDk4NzU0IDEwLjU3MDg4MSAyMC44ODcwNDMgMjUuNTE0MDMyIDQ1LjYwMjUyNyA1NS4zMzUzOCA4MC44ODc2MiA4OC45ODc3MTcgMTAxLjIyMzE5M2EzNzIuNzQ0NTU5IDM3Mi43NDQ1NTkgMCAwIDAgNDYuNjcxMDc4IDUuNDA4OTh6IG0zMjAuMTIwNjc0LTcxNy4xMDMxMTdhMTI4LjczNjc3OCAxMjguNzM2Nzc4IDAgMCAwLTEwLjU5MTI1OS0xMC4wNjE0NDEgNDQxLjIyMjIxOCA0NDEuMjIyMjE4IDAgMCAxLTU4LjMxNTYwNCAzNi45MzQ0MDRjMjcuMTQxNjkzIDcwLjc5NTYxMiA0My45MzkyMDUgMTU2LjAxNjAyIDQ2LjY3MjM1MSAyNDcuNDQ3Nzc1aDE0NC44NDM5OTlhNDE5LjYyOTYwMSA0MTkuNjI5NjAxIDAgMCAwLTEyMi42MDk0ODctMjc0LjMyMDczOHogbS00Ni42NzIzNTItNDAuNDEzODhhNDE1LjMwMDYzNCA0MTUuMzAwNjM0IDAgMCAwLTg1LjcxMzI5LTQ5LjQxNTY4NyA0MzQuMzg0MjU5IDQzNC4zODQyNTkgMCAwIDEgMzMuNjIzMDQ0IDUxLjU2Mjk3NmMzLjgwNTUxNyA3LjA2MjExMyA3Ljg2MTkzNCAxNS4yMDE2OTIgMTEuOTQyNTQ5IDIzLjMzOTk5NyAxMy41NzE0ODMtOC4xMzgzMDUgMjcuMTE3NDk1LTE2LjU1NjgwMiA0MC4xMzc1MDktMjUuNDkzNjU0eiBtLTE4MS4yMzMzMDItNzcuMzU3MmMtMTUuMTcyMzk5LTIuNDA0NTU3LTMwLjkyMTczOC00LjA1NjQxNy00Ni42NDY4OC01LjEzMzg4M1YyNTMuMzA2MzM2YTQyOS4wMjI0MDIgNDI5LjAyMjQwMiAwIDAgMCAxMjkuMTI3NzczLTI2LjU4ODk1MWM1Ljk4NTkyMS0yLjE3Nzg1NiAxMS4zOTIzNTMtNC4zNTY5ODYgMTcuMDc2NDMxLTYuNzg3MDE1LTIuOTU0NzUyLTcuMzM3MjExLTcuMDM2NjQxLTE0LjM3Mzg1MS0xMC41NDE1ODgtMjAuODg3MDQzLTI0Ljk4OTMwOS00Ni4xNTUyNy01NS42MTA0NzctODAuODg4ODkzLTg5LjAxMzE4OS0xMDEuNzc0NjYyeiBtLTkyLjIxNzU2Ny01LjEzMzg4M2MtMTUuNzIzODY4IDEuMDc3NDY2LTMxLjQ3MzIwNyAyLjcyOTMyNS00Ni42NzEwNzggNS4xMzM4ODMtMzMuNjUyMzM3IDIwLjg4NzA0My02My40NzM2ODUgNTUuNjE5MzkzLTg4Ljk4NzcxNyAxMDEuNzc0NjYyLTMuNzgxMzE5IDYuNTEwNjQ0LTcuMDM2NjQxIDEzLjU0NzI4NS0xMC44MTY2ODYgMjAuODg3MDQyIDUuNjg0MDc4IDIuNDMwMDI5IDExLjM5MjM1MyA0LjYwOTE1OSAxNy4zNTE1MjkgNi43ODcwMTZhNDI4Ljg1OTM4MiA0MjguODU5MzgyIDAgMCAwIDEyOS4xMjM5NTIgMjYuNTk1MzE4VjkyLjEzMDk2MnogbS0xNDIuMTQxNDE5IDMzLjA3NTM5NmE0MTQuODQ1OTU5IDQxNC44NDU5NTkgMCAwIDAtODUuNzMyMzk1IDQ5LjQxNTY4N2MxMy4wMjAwMTQgOC45NDA2NzMgMjYuNTkxNDk4IDE3LjM1NTM0OSA0MC40MTI2MDcgMjUuNDkzNjU0YTIzMy4yNjM2OSAyMzMuMjYzNjkgMCAwIDEgMTEuNjY3NDUxLTIzLjMzOTk5N2MxMC4wNDEwNjQtMTkuMDA3MjA5IDIxLjcwODUxNS0zNS44MTEwODkgMzMuNjUyMzM3LTUxLjU2Mjk3NnogbS0xMjIuMDg4NTg1IDc5Ljc2MzAzMWMtMy4yNTUzMjIgMy4wMDQ0MjMtNy4wNjA4MzkgNi41MzYxMTYtMTAuMzE2MTYyIDEwLjA2MTQ0MWE0MTkuNjI4MzI4IDQxOS42MjgzMjggMCAwIDAtMTIyLjYxNDU4MSAyNzQuMzI0NTZoMTQ0Ljg3NDU2NWMyLjcwMzg1My05MS40MzA0ODIgMTkuNTI5Mzg1LTE3Ni42NDgzNDIgNDYuMzcwNTA4LTI0Ny40NDc3NzVhNDc4LjQ3NzU3IDQ3OC40Nzc1NyAwIDAgMS01OC4zMTQzMy0zNi45MzQ0MDV6TTkyLjA1MTk5OSA1MzUuMTg5NzEyYTQyMC43Nzk2NjIgNDIwLjc3OTY2MiAwIDAgMCAxMjIuNjE0NTgxIDI3NC4zMTk0NjRsMTAuMzE2MTYyIDEwLjI5MzIzN2E0MjUuMzE4NzczIDQyNS4zMTg3NzMgMCAwIDEgNTguMzE4MTUxLTM3LjQxMzI3OGMtMjYuODQxMTIzLTcxLjA5NjE4Mi00My42NjY2NTUtMTU1Ljc0MjE5NS00Ni4zNzA1MDgtMjQ3LjE5ODE1SDkyLjA1MTk5OXogbTE2OS4yODY5MzMgMzE0LjQ4ODgxM2E0MTUuODgyNjcgNDE1Ljg4MjY3IDAgMCAwIDg1LjczMjM5NSA0OS4zODM4NDcgMzYwLjUzMzI4IDM2MC41MzMyOCAwIDAgMS0zMy42NTIzMzctNTEuNTYyOTc2Yy00LjA3NTUyMS03LjMxMzAxMi04LjEzNzAzMS0xNS4xNzYyMTktMTEuNjY3NDUxLTIyLjc4ODUyOGE0MTYuNjM1MzY3IDQxNi42MzUzNjcgMCAwIDAtNDAuNDEyNjA3IDI0Ljk2MjU2M3ogbTI3My40NDE5NTQgODIuNDY1NjExYTM3MS43ODA0NDMgMzcxLjc4MDQ0MyAwIDAgMCA0Ni42NDY4NzktNS40MDg5OGMzMy40MDI3MTEtMjAuMzM1NTc0IDY0LjAyMzg4LTU1LjYyMDY2NiA4OS4wMTMxODktMTAxLjIyMzE5NCAzLjUwNDk0OC02Ljc4NzAxNSA3LjU4NjgzNi0xMy44MjM2NTYgMTAuNTQxNTg5LTIwLjg4NzA0MmExMzMuODg1OTQzIDEzMy44ODU5NDMgMCAwIDAtMTcuMDc2NDMxLTYuNTExOTE4IDQwNS4yNTk1NzEgNDA1LjI1OTU3MSAwIDAgMC0xMjkuMTIwMTMyLTI2LjU5NDA0NXYxNjAuNjI1MTc5eiBtMTQyLjE2OTQzOS0zMy4wODE3NjRhNDE2LjMzOTg5MiA0MTYuMzM5ODkyIDAgMCAwIDg1LjcxMzI5LTQ5LjM4Mzg0NyAzOTAuNjc4MTIyIDM5MC42NzgxMjIgMCAwIDAtNDAuMTM3NTA5LTI0Ljk2MjU2M2MtNC4wNzU1MjEgNy42MTIzMDgtOC4xMzcwMzEgMTUuNDc1NTE2LTExLjk0MjU0OCAyMi43ODg1MjgtMTAuNTkyNTMzIDE4LjcwNjYzOS0yMS42ODQzMTYgMzYuMzYyNTU4LTMzLjYyMzA0NSA1MS41NjI5NzZ6IG0xMjEuNzg5Mjg4LTc5LjI1OTk1OWwxMC41OTEyNTktMTAuMjkzMjM3YTQyMC43ODA5MzYgNDIwLjc4MDkzNiAwIDAgMCAxMjIuNjE0NTgyLTI3NC4zMTk0NjRINzg3LjEwMTQ1NWMtMi43MjkzMjUgOTEuNDU1OTU0LTE5LjUzMDY1OCAxNzYuMTAxOTY4LTQ2LjY3MjM1MSAyNDcuMTk4MTQ5YTM5NS42MjA5NjUgMzk1LjYyMDk2NSAwIDAgMSA1OC4zMTU2MDQgMzcuNDE0NTUyeiBtLTk5LjgyNDc4LTU1OC4xMDU1OTlhMjAzLjYyNDQ2NyAyMDMuNjI0NDY3IDAgMCAxLTE5LjAwNDY2MiA3LjMzNzIxIDQ2MC42MTc4NzUgNDYwLjYxNzg3NSAwIDAgMS0xNDUuMTI0MTkxIDI5LjgyNjQ0MnYxOTAuNTAwMDE4aDIwNi4xOTU4NjZjLTIuNDUyOTU0LTg0LjM5Mzg0MS0xNy4zNzU3MjctMTYyLjU1MzQwOS00Mi4wNjQ0NjYtMjI3LjY2MzY3eiBtLTIwOS42OTk1NCAzNy4xNjM2NTJhNDU2LjA2MjIwNyA0NTYuMDYyMjA3IDAgMCAxLTE0NC44NzMyOTItMjkuODI2NDQyIDE4Ny45Mjk4OTIgMTg3LjkyOTg5MiAwIDAgMS0xOS41MzA2NTgtNy4zMzcyMWMtMjQuNDEyMzY4IDY1LjExMDI2MS0zOS42MDg5NjUgMTQzLjI2OTgyOS00Mi4wNjQ0NjYgMjI3LjY2MzY3SDQ4OS4yMTUyOTNWMjk4Ljg2MDQ2NnogbTAgNDI2LjU1NDE2NXYtMTkwLjIyNDkxOUgyODIuNzQ2ODc3YzIuNDU0MjI4IDg0LjE0NDIxNSAxNy42NTIwOTggMTYxLjk3Nzc0MiA0Mi4wNjQ0NjYgMjI3LjM4ODU3MiA2LjUxMDY0NC0yLjQyODc1NiAxMy4wMjAwMTQtNS4xNTgwODEgMTkuNTMwNjU4LTcuMzM3MjEgNDUuMDE5MjE4LTE3LjM1NDA3NiA5My44NjQzMzItMjcuMzk2NDEzIDE0NC44NzMyOTItMjkuODI2NDQzeiBtNDUuNTcwNjg3IDBhNDY1LjM2NTg1NyA0NjUuMzY1ODU3IDAgMCAxIDE0NC44NzQ1NjYgMjkuODI2NDQzYzYuNTA5MzcgMi4xNzkxMyAxMi43NDM2NDMgNC45MDg0NTUgMTkuMjU0Mjg3IDcuMzM3MjEgMjQuNjg4NzM5LTY1LjQxMDgzMSAzOS42MDg5NjUtMTQzLjI0NDM1NyA0Mi4wNjQ0NjYtMjI3LjM4ODU3Mkg1MzQuNzg1OTh2MTkwLjIyNDkxOXoiLz48L3N2Zz4=;" vertex="1" parent="8">
                    <mxGeometry x="15" y="15" width="90" height="90" as="geometry"/>
                </mxCell>
                <mxCell id="14" value="Web Page" style="text;html=1;strokeColor=none;fillColor=none;align=center;verticalAlign=middle;whiteSpace=wrap;rounded=0;" vertex="1" parent="16">
                    <mxGeometry x="60" y="180" width="80" height="30" as="geometry"/>
                </mxCell>
                <mxCell id="19" value="" style="group" vertex="1" connectable="0" parent="1">
                    <mxGeometry x="-370" y="476" width="90" height="115" as="geometry"/>
                </mxCell>
                <mxCell id="yZXLWe79OLjicTHm0tPa-26" value="API-gateway" style="text;html=1;strokeColor=none;fillColor=none;align=center;verticalAlign=middle;whiteSpace=wrap;rounded=0;" parent="19" vertex="1">
                    <mxGeometry x="15" y="85" width="60" height="30" as="geometry"/>
                </mxCell>
                <mxCell id="18" value="" style="group" vertex="1" connectable="0" parent="19">
                    <mxGeometry width="90" height="85" as="geometry"/>
                </mxCell>
                <mxCell id="yZXLWe79OLjicTHm0tPa-25" value="" style="shape=image;verticalLabelPosition=bottom;labelBackgroundColor=default;verticalAlign=top;aspect=fixed;imageAspect=0;image=data:image/svg+xml,PHN2ZyB4bWxuczp4bGluaz0iaHR0cDovL3d3dy53My5vcmcvMTk5OS94bGluayIgeG1sbnM9Imh0dHA6Ly93d3cudzMub3JnLzIwMDAvc3ZnIiBoZWlnaHQ9IjIwMCIgd2lkdGg9IjIwMCIgdmVyc2lvbj0iMS4xIiB2aWV3Qm94PSIwIDAgMTAyNCAxMDI0IiBjbGFzcz0iaWNvbiI+PHBhdGggZmlsbD0iIiBkPSJNMjQ5LjkwNCA5MTYuMDExbC0zMi43NzEgMzIuNzUxYzcwLjc2NyAyMC4yNzUgMTU4LjcxOSAxMC43MjUgMjUwLjI5NS0yNS4yMDJsLTM5LjA0My0yNy4zMzRjLTY1LjAyNyAyMi4zODYtMTI2LjU2MSAyOS41NzMtMTc4LjQ4MSAxOS43ODV6IG01MjMuNjU4LTgwOC44OTVsMzIuNzQ4LTMyLjc3MWMtNzEuMjc5LTIwLjQwNi0xNTkuOTk2LTEwLjU1Ni0yNTIuMzIgMjYuMDMxbDQyLjYwMyAyNi4wMTdjNjQuNDUyLTIyLjAwNSAxMjUuNDM2LTI4Ljk3OCAxNzYuOTY5LTE5LjI3N3ogbS02Mi4xNTMgMjA0Ljc3MmM1MS4zMDEgNTEuMzIxIDk0LjAwNiAxMDYuMTU5IDEyNy4xNjQgMTYxLjE5MWwyNC4xNTUtMzYuOGMtMzMuMDcxLTUyLjUxNy03NC4yMTktMTA0LjMyOS0xMjIuODEyLTE1Mi44OThDNTY5LjI4MiAxMTIuNzIyIDM1OC43NzEgMzMuNzY5IDIxNy4xMzMgNzQuMzQ1bDMyLjc3MSAzMi43NzFjMTI2LjMwOC0yMy43OTcgMzA5LjQzOCA1Mi43MjkgNDYxLjUwNSAyMDQuNzcyeiBtMTg0LjMyMiAyODEuMTI2YzIyLjkyMiA2NS43MzEgMzAuMzIyIDEyNy45NDkgMjAuNDQ5IDE4MC4zNzhsMzIuNzcxIDMyLjc1MWMyMC41MS03MS42NDIgMTAuNDQ2LTE2MC44OTUtMjYuNTg3LTI1My43MDVsLTI2LjYzMyA0MC41NzZ6IG0tODQuNDk2IDIxOC4wNTFjLTMxLjUxMiAzMS41MTUtMzEuNTEyIDgyLjU4IDAgMTE0LjA5NCAzMS41MTUgMzEuNTEyIDgyLjU4IDMxLjUxMiAxMTQuMDk0IDAgMzEuNTEyLTMxLjUxNSAzMS41MTItODIuNTggMC0xMTQuMDk0LTMxLjUxNS0zMS41MTEtODIuNTgtMzEuNTExLTExNC4wOTQgMHogbTg1LjU2NCA4NS41NjRjLTE1LjczNyAxNS43NTctNDEuMjggMTUuNzU3LTU3LjAzNCAwLTE1Ljc1Ny0xNS43MzQtMTUuNzU3LTQxLjI3NyAwLTU3LjAzNCAxNS43NTQtMTUuNzU0IDQxLjI5Ny0xNS43NTQgNTcuMDM0IDAgMTUuNzU3IDE1Ljc1OCAxNS43NTcgNDEuMyAwIDU3LjAzNHpNNzM5LjkxNSA3MzkuNzQ2YzE3MC42NTctMTcwLjYzMyAyNDkuNTg5LTM4MS4xNDUgMjA5LjAzNi01MjIuNzgzbC0zMi43NzEgMzIuNzc0YzIzLjc5NCAxMjYuMzA1LTUyLjcyOSAzMDkuNDM1LTIwNC43NzIgNDYxLjUwMi01My4wMDUgNTMuMDA1LTEwOS43ODMgOTYuODIxLTE2Ni42MjggMTMwLjQyNGwzNS42NzEgMjQuOTY3YzU0Ljc3Ny0zMy43NTEgMTA4Ljg2OC03Ni4yODcgMTU5LjQ2NC0xMjYuODg0eiBtNzEuMzItNTI3LjY4N2MzMS41MTUgMzEuNTE1IDgyLjU4IDMxLjUxNSAxMTQuMDk0IDAgMzEuNTEyLTMxLjUxMiAzMS41MTItODIuNTk3IDAtMTE0LjA4OC0zMS41MTUtMzEuNTE1LTgyLjU4LTMxLjUxNS0xMTQuMDk0IDAtMzEuNTEyIDMxLjQ5MS0zMS41MTIgODIuNTc2IDAgMTE0LjA4OHogbTI4LjUzLTg1LjU4MWMxNS43NTQtMTUuNzM3IDQxLjI5Ny0xNS43MzcgNTcuMDM0IDAgMTUuNzU3IDE1Ljc1NCAxNS43NTcgNDEuMjk3IDAgNTcuMDU3LTE1LjczNyAxNS43NTQtNDEuMjggMTUuNzU0LTU3LjAzNCAwLTE1Ljc1OC0xNS43Ni0xNS43NTgtNDEuMzAzIDAtNTcuMDU3ek0yMTIuMjI4IDgxMS4wNjVjLTMxLjUxNS0zMS41MTItODIuNTk3LTMxLjUxMi0xMTQuMDg4IDAtMzEuNTE1IDMxLjUxNS0zMS41MTUgODIuNTggMCAxMTQuMDk0IDMxLjQ5MSAzMS41MTIgODIuNTc0IDMxLjUxMiAxMTQuMDg4IDAgMzEuNTE1LTMxLjUxNCAzMS41MTUtODIuNTc5IDAtMTE0LjA5NHogbS0yOC41MjcgODUuNTY0Yy0xNS43NTcgMTUuNzU3LTQxLjMgMTUuNzU3LTU3LjAzNCAwLTE1Ljc1Ny0xNS43MzQtMTUuNzU3LTQxLjI3NyAwLTU3LjAzNCAxNS43MzQtMTUuNzU0IDQxLjI3Ny0xNS43NTQgNTcuMDM0IDAgMTUuNzU4IDE1Ljc1OCAxNS43NTggNDEuMyAwIDU3LjAzNHogbTI4LjUyNy02ODQuNTdjMzEuNTE1LTMxLjUxMiAzMS41MTUtODIuNTk3IDAtMTE0LjA4OC0zMS41MTUtMzEuNTE1LTgyLjU5Ny0zMS41MTUtMTE0LjA4OCAwLTMxLjUxNSAzMS40OTEtMzEuNTE1IDgyLjU3NyAwIDExNC4wODggMzEuNDkxIDMxLjUxNSA4Mi41NzQgMzEuNTE1IDExNC4wODggMHogbS04NS41NjEtODUuNTgxYzE1LjczNC0xNS43MzcgNDEuMjc3LTE1LjczNyA1Ny4wMzQgMCAxNS43NTcgMTUuNzU0IDE1Ljc1NyA0MS4yOTcgMCA1Ny4wNTctMTUuNzU3IDE1Ljc1NC00MS4zIDE1Ljc1NC01Ny4wMzQgMC0xNS43NTctMTUuNzYtMTUuNzU3LTQxLjMwMyAwLTU3LjA1N3ogbTE4NS4zOSA1ODQuNzYxYy01Mi4wMjgtNTIuMDQ1LTk1LjIwMS0xMDcuNzE1LTEyOC41NzEtMTYzLjQ5MmwtMjIuNjQzIDM5LjI1MmMzMy4wNSA1Mi40NyA3NC4xNTUgMTA0LjIyMSAxMjIuNzA3IDE1Mi43NDcgMTcwLjYzNyAxNzAuNjU3IDM4MS4xNDIgMjQ5LjU4OSA1MjIuNzYgMjA5LjAxNmwtMzIuNzQ4LTMyLjc1MWMtMTI2LjMzMiAyMy43OTQtMzA5LjQ0MS01Mi43MjYtNDYxLjUwNS0yMDQuNzcyeiBtLTE4Ni4yMDEtMjg2LjU4Yy0yMS40NS02My43MS0yOC4xODctMTIzLjk0My0xOC41Ny0xNzQuOTIxbC0zMi43NzQtMzIuNzc0Yy0yMC4zODIgNzEuMTcxLTEwLjU5NCAxNTkuNzE5IDI1Ljg0NSAyNTEuODcybDI1LjQ5OS00NC4xNzd6IG0tMTguNTcgMzQ4LjczNGMtMjMuNzk3LTEyNi4zMzIgNTIuNzI5LTMwOS40NDEgMjA0Ljc3Mi00NjEuNTA1IDUwLjc4OS01MC43NjggMTA1LjAzLTkzLjEzMyAxNTkuNDg0LTEyNi4xMzdsLTM4LjEtMjMuMjgyYy01MS40OTMgMzIuNzQ4LTEwMi4yNTggNzMuMjU3LTE0OS44OSAxMjAuODkyQzExMi44OTEgNDU0LjAxOCAzMy45MzkgNjY0LjUyMyA3NC41MTEgODA2LjE0M2wzMi43NzUtMzIuNzV6TTM2Mi4zMiAzOTcuMzM2bC03OC4wNSAyMDQuMDM5aDM1Ljc0NGwxOC41Ny01MS4xOTZoODUuNDUxbDE4LjU3IDUxLjE5NmgzNS43NDRsLTc4LjA1LTIwNC4wMzlIMzYyLjMyeiBtLTEzLjczIDEyNS4zODNsMzIuMy04OS40NTNoMS4xMTdsMzIuMDIxIDg5LjQ1M0gzNDguNTl6IG0zMDguNDc4LTYyLjgzMWMwLTQxLjcwMS0yNC45LTYyLjU1Mi03NC4wNDgtNjIuNTUyaC04NC41NjZ2MjA0LjAzOWgzMy40MTd2LTc4LjM3Nmg1MC41OTFjNDkuNzA2LTAuMDAxIDc0LjYwNi0yMS4xMzEgNzQuNjA2LTYzLjExMXogbS00NC4wMjggMjYuNTI5Yy02Ljg0MiA1LjIxMy0xNy43MzIgOC4wMDUtMzIuNTc5IDguMDA1aC00OC41OXYtNjguNTA5aDQ4LjU5YzE0LjU2OCAwIDI1LjQxMiAyLjUxMyAzMi4zIDguMDA1IDYuODQyIDUuMTIgMTAuNTY1IDEzLjY4MyAxMC41NjUgMjUuOTdzLTMuNDQ1IDIxLjEzLTEwLjI4NiAyNi41Mjl6IG0xMDYuMTYxLTg5LjA4MWgtMzMuNDY0djIwNC4wMzloMzMuNDY0VjM5Ny4zMzZ6Ii8+PC9zdmc+;" parent="18" vertex="1">
                    <mxGeometry x="15" y="12.5" width="60" height="60" as="geometry"/>
                </mxCell>
                <mxCell id="15" value="" style="swimlane;startSize=0;rounded=0;strokeColor=default;" vertex="1" parent="18">
                    <mxGeometry width="90" height="85" as="geometry"/>
                </mxCell>
                <mxCell id="20" style="edgeStyle=entityRelationEdgeStyle;html=1;exitX=0;exitY=0.5;exitDx=0;exitDy=0;entryX=0.977;entryY=0.601;entryDx=0;entryDy=0;entryPerimeter=0;" edge="1" parent="1" source="15" target="9">
                    <mxGeometry relative="1" as="geometry"/>
                </mxCell>
                <mxCell id="25" value="" style="group" vertex="1" connectable="0" parent="1">
                    <mxGeometry x="-580" y="671" width="260" height="234" as="geometry"/>
                </mxCell>
                <mxCell id="21" value="" style="strokeColor=#dddddd;shadow=1;strokeWidth=1;rounded=1;absoluteArcSize=1;arcSize=2;" vertex="1" parent="25">
                    <mxGeometry width="260" height="44" as="geometry"/>
                </mxCell>
                <mxCell id="22" value="Frontend&#10;Platform Services" style="sketch=0;dashed=0;connectable=0;html=1;fillColor=#757575;strokeColor=none;shape=mxgraph.gcp2.frontend_platform_services;part=1;labelPosition=right;verticalLabelPosition=middle;align=left;verticalAlign=middle;spacingLeft=5;fontSize=12;rounded=0;" vertex="1" parent="21">
                    <mxGeometry y="0.5" width="32" height="32" relative="1" as="geometry">
                        <mxPoint x="5" y="-16" as="offset"/>
                    </mxGeometry>
                </mxCell>
                <mxCell id="24" value="" style="swimlane;startSize=0;rounded=0;strokeColor=default;" vertex="1" parent="25">
                    <mxGeometry y="44" width="260" height="156" as="geometry"/>
                </mxCell>
                <mxCell id="yZXLWe79OLjicTHm0tPa-66" value="" style="shape=image;verticalLabelPosition=bottom;labelBackgroundColor=default;verticalAlign=top;aspect=fixed;imageAspect=0;image=data:image/svg+xml,PHN2ZyB4bWxuczp4bGluaz0iaHR0cDovL3d3dy53My5vcmcvMTk5OS94bGluayIgeG1sbnM9Imh0dHA6Ly93d3cudzMub3JnLzIwMDAvc3ZnIiBoZWlnaHQ9IjIwMCIgd2lkdGg9IjIwMCIgdmVyc2lvbj0iMS4xIiB2aWV3Qm94PSIwIDAgMTAyNCAxMDI0IiBjbGFzcz0iaWNvbiI+PHBhdGggZD0iTTUxMiAxMDI0Yy0xNC40IDAtMjcuMi0zLjItNDAtMTEuMmwtMTI0LjgtNzMuNmMtMTkuMi0xMS4yLTkuNi0xNC40LTMuMi0xNiAyNS42LTggMzAuNC0xMS4yIDU2LTI1LjYgMy4yLTEuNiA2LjQtMS42IDkuNiAxLjZsOTYgNTcuNmMzLjIgMS42IDggMS42IDExLjIgMGwzNzYtMjE2YzMuMi0xLjYgNi40LTYuNCA2LjQtOS42VjI5NC40YzAtNC44LTEuNi04LTYuNC05LjZMNTE2LjggNjguOGMtMy4yLTEuNi04LTEuNi0xMS4yIDBMMTMxLjIgMjg0LjhjLTMuMiAxLjYtNi40IDYuNC02LjQgOS42djQzMy42YzAgNC44IDEuNiA4IDYuNCA5LjZsMTAyLjQgNTkuMmM1NiAyNy4yIDg5LjYtNC44IDg5LjYtMzguNFYzMzIuOGMwLTYuNCA0LjgtMTEuMiAxMS4yLTExLjJoNDhjNi40IDAgMTEuMiA0LjggMTEuMiAxMS4ydjQyNy4yYzAgNzMuNi00MCAxMTYuOC0xMTAuNCAxMTYuOC0yMi40IDAtMzguNCAwLTg2LjQtMjRsLTk3LjYtNTZjLTI0LTE0LjQtNDAtNDAtNDAtNjguOFYyOTQuNGMwLTI4LjggMTQuNC01NC40IDQwLTY4LjhMNDcyIDkuNkM0OTYtMy4yIDUyOC0zLjIgNTUwLjQgOS42bDM3NiAyMTcuNmMyNCAxNC40IDQwIDQwIDQwIDY4Ljh2NDMzLjZjMCAyOC44LTE0LjQgNTQuNC00MCA2OC44TDU1MiAxMDEyLjhjLTEyLjggOC0yNS42IDExLjItNDAgMTEuMnogbTMwMi40LTQyNy4yYzAtODEuNi01NC40LTEwMi40LTE2OS42LTExOC40LTExNi44LTE2LTEyOC0yNC0xMjgtNTEuMiAwLTIyLjQgOS42LTUyLjggOTYtNTIuOCA3Ni44IDAgMTA1LjYgMTYgMTE2LjggNjguOCAxLjYgNC44IDQuOCA4IDExLjIgOGg0OGMzLjIgMCA2LjQtMS42IDgtMy4yIDEuNi0xLjYgMy4yLTQuOCAzLjItOC04LTg5LjYtNjcuMi0xMzEuMi0xODcuMi0xMzEuMi0xMDcuMiAwLTE3MS4yIDQ0LjgtMTcxLjIgMTIxLjYgMCA4MS42IDY0IDEwNS42IDE2Ni40IDExNS4yIDEyMy4yIDExLjIgMTMyLjggMzAuNCAxMzIuOCA1NC40IDAgNDEuNi0zMy42IDU5LjItMTEyIDU5LjItOTkuMiAwLTEyMS42LTI1LjYtMTI4LTczLjYtMS42LTQuOC00LjgtOS42LTExLjItOS42aC00OGMtNi40IDAtMTEuMiA0LjgtMTEuMiAxMS4yIDAgNjIuNCAzMy42IDEzOS4yIDE5OC40IDEzOS4yIDExOC40IDAgMTg1LjYtNDggMTg1LjYtMTI5LjZ6Ii8+PC9zdmc+;" parent="24" vertex="1">
                    <mxGeometry x="180" y="45" width="60" height="60" as="geometry"/>
                </mxCell>
                <mxCell id="yZXLWe79OLjicTHm0tPa-65" value="" style="shape=image;verticalLabelPosition=bottom;labelBackgroundColor=default;verticalAlign=top;aspect=fixed;imageAspect=0;image=data:image/svg+xml,PHN2ZyB4bWxuczp4bGluaz0iaHR0cDovL3d3dy53My5vcmcvMTk5OS94bGluayIgeG1sbnM9Imh0dHA6Ly93d3cudzMub3JnLzIwMDAvc3ZnIiBoZWlnaHQ9IjIwMCIgd2lkdGg9IjIwMCIgdmVyc2lvbj0iMS4xIiB2aWV3Qm94PSIwIDAgMTAyNCAxMDI0IiBjbGFzcz0iaWNvbiI+PHBhdGggZmlsbD0iIzQxQjg4MyIgZD0iTTYxNS42IDEyMy42aDE2NS41TDUxMiA1ODkuNyAyNDIuOSAxMjMuNkg2My41TDUxMiA5MDAuNGw0NDguNS03NzYuOXoiLz48cGF0aCBmaWxsPSIjMzQ0OTVFIiBkPSJNNzgxLjEgMTIzLjZINjE1LjZMNTEyIDMwMyA0MDguNCAxMjMuNkgyNDIuOUw1MTIgNTg5Ljd6Ii8+PC9zdmc+;" parent="24" vertex="1">
                    <mxGeometry x="106" y="45" width="60" height="60" as="geometry"/>
                </mxCell>
                <mxCell id="28" value="vue" style="text;html=1;strokeColor=none;fillColor=none;align=center;verticalAlign=middle;whiteSpace=wrap;rounded=0;" vertex="1" parent="24">
                    <mxGeometry x="106" y="105" width="60" height="30" as="geometry"/>
                </mxCell>
                <mxCell id="29" value="nodejs" style="text;html=1;strokeColor=none;fillColor=none;align=center;verticalAlign=middle;whiteSpace=wrap;rounded=0;" vertex="1" parent="24">
                    <mxGeometry x="180" y="105" width="60" height="30" as="geometry"/>
                </mxCell>
                <mxCell id="27" value="" style="sketch=0;outlineConnect=0;fontColor=#232F3E;gradientColor=none;fillColor=#3F8624;strokeColor=none;dashed=0;verticalLabelPosition=bottom;verticalAlign=top;align=center;html=1;fontSize=12;fontStyle=0;aspect=fixed;pointerEvents=1;shape=mxgraph.aws4.iot_greengrass_component_nucleus;rounded=0;" vertex="1" parent="24">
                    <mxGeometry x="30" y="48.5" width="53" height="53" as="geometry"/>
                </mxCell>
                <mxCell id="30" value="nginx" style="text;html=1;strokeColor=none;fillColor=none;align=center;verticalAlign=middle;whiteSpace=wrap;rounded=0;" vertex="1" parent="24">
                    <mxGeometry x="27" y="105" width="60" height="30" as="geometry"/>
                </mxCell>
                <mxCell id="26" value="" style="endArrow=classic;html=1;exitX=0.5;exitY=0;exitDx=0;exitDy=0;entryX=0.5;entryY=1;entryDx=0;entryDy=0;edgeStyle=orthogonalEdgeStyle;curved=1;" edge="1" parent="1" source="21" target="14">
                    <mxGeometry width="50" height="50" relative="1" as="geometry">
                        <mxPoint x="-210" y="660" as="sourcePoint"/>
                        <mxPoint x="-160" y="610" as="targetPoint"/>
                    </mxGeometry>
                </mxCell>
                <mxCell id="31" value="" style="group" vertex="1" connectable="0" parent="1">
                    <mxGeometry x="-250" y="320" width="61" height="91" as="geometry"/>
                </mxCell>
                <mxCell id="yZXLWe79OLjicTHm0tPa-27" value="" style="shape=image;verticalLabelPosition=bottom;labelBackgroundColor=default;verticalAlign=top;aspect=fixed;imageAspect=0;image=https://sa-token.cc/logo.png;" parent="31" vertex="1">
                    <mxGeometry width="61" height="61" as="geometry"/>
                </mxCell>
                <mxCell id="yZXLWe79OLjicTHm0tPa-28" value="Sa-Token&lt;br&gt;认证鉴权" style="text;html=1;strokeColor=none;fillColor=none;align=center;verticalAlign=middle;whiteSpace=wrap;rounded=0;" parent="31" vertex="1">
                    <mxGeometry x="1" y="61" width="60" height="30" as="geometry"/>
                </mxCell>
                <mxCell id="37" value="" style="group" vertex="1" connectable="0" parent="1">
                    <mxGeometry x="-220" y="431" width="300" height="170" as="geometry"/>
                </mxCell>
                <mxCell id="32" value="" style="group" vertex="1" connectable="0" parent="37">
                    <mxGeometry x="20" y="50" width="95" height="100" as="geometry"/>
                </mxCell>
                <mxCell id="yZXLWe79OLjicTHm0tPa-18" value="" style="shape=image;verticalLabelPosition=bottom;labelBackgroundColor=default;verticalAlign=top;aspect=fixed;imageAspect=0;image=data:image/svg+xml,PHN2ZyB4bWxuczp4bGluaz0iaHR0cDovL3d3dy53My5vcmcvMTk5OS94bGluayIgeG1sbnM9Imh0dHA6Ly93d3cudzMub3JnLzIwMDAvc3ZnIiBoZWlnaHQ9IjIwMCIgd2lkdGg9IjIwMCIgdmVyc2lvbj0iMS4xIiB2aWV3Qm94PSIwIDAgMTAyNCAxMDI0IiBjbGFzcz0iaWNvbiI+PHBhdGggZmlsbD0iIzJBNkJGRiIgZD0iTTQwOC43Mjk2IDUxLjJjMjg3LjY0MTYgMCA0NzcuNjk2IDEzNS4wMTQ0IDQ3Ny42OTYgNDU1LjgzMzZTNjk2LjMyIDk3Mi44IDQyMS4zNzYgOTcyLjhIMTM3LjYyNTZWNTEuMnogbTEyOC41MTIgMTA0LjE0MDhINDM5LjI5NmMtMjQuNDIyNCAwLTQyLjEzNzYgNS43MzQ0LTUzLjE0NTYgMTcuMzA1Ni05LjY3NjggMTAuMDg2NC0xNS4xMDQgMjUuMjQxNi0xNi4yODE2IDQ1LjQxNDRsLTAuMjU2IDguOTA4OHY1OTUuMzUzNmMwIDE2LjAyNTYgMi40MDY0IDI5LjMzNzYgNy4yNzA0IDM5LjkzNmE0OC41ODg4IDQ4LjU4ODggMCAwIDAgMjIuODM1MiAyMy44NTkyYzguMjk0NCA0LjE5ODQgMTguNDMyIDYuNzA3MiAzMC4zMTA0IDcuNTc3Nmw5LjIxNiAwLjMwNzJoOTguMDk5MmMzMy44NDMyIDAgNTAuNzkwNC0xMy45MjY0IDUwLjc5MDQtNDEuNzI4IDAtMjYuMTEyLTE0LjU5Mi00MC4wODk2LTQzLjgyNzItNDEuOTMyOGwtNi45NjMyLTAuMjA0OEg0NzEuNTUyVjIzOS4yMDY0aDY1Ljc0MDhjMzMuODQzMiAwIDUwLjc5MDQtMTMuOTI2NCA1MC43OTA0LTQxLjc3OTIgMC0xMi44LTQuMTk4NC0yMy4wNC0xMi41OTUyLTMwLjcyLTcuMDE0NC02LjI5NzYtMTYuOTk4NC0xMC4wMzUyLTMwLjA1NDQtMTEuMDU5MmwtOC4xOTItMC4zMDcyeiIvPjwvc3ZnPg==;" parent="32" vertex="1">
                    <mxGeometry x="20" width="65" height="65" as="geometry"/>
                </mxCell>
                <mxCell id="yZXLWe79OLjicTHm0tPa-19" value="Dubbo服务调用" style="text;html=1;strokeColor=none;fillColor=none;align=center;verticalAlign=middle;whiteSpace=wrap;rounded=0;" parent="32" vertex="1">
                    <mxGeometry y="70" width="95" height="30" as="geometry"/>
                </mxCell>
                <mxCell id="33" value="" style="group" vertex="1" connectable="0" parent="37">
                    <mxGeometry x="140" y="70" width="138.46" height="75" as="geometry"/>
                </mxCell>
                <mxCell id="yZXLWe79OLjicTHm0tPa-20" value="" style="shape=image;verticalLabelPosition=bottom;labelBackgroundColor=default;verticalAlign=top;aspect=fixed;imageAspect=0;image=https://github.com/alibaba/nacos/raw/develop/doc/Nacos_Logo.png;" parent="33" vertex="1">
                    <mxGeometry width="138.46" height="27" as="geometry"/>
                </mxCell>
                <mxCell id="yZXLWe79OLjicTHm0tPa-22" value="服务发现&lt;br&gt;配置管理" style="text;html=1;strokeColor=none;fillColor=none;align=center;verticalAlign=middle;whiteSpace=wrap;rounded=0;" parent="33" vertex="1">
                    <mxGeometry x="39.22999999999999" y="45" width="60" height="30" as="geometry"/>
                </mxCell>
                <mxCell id="34" value="middleware" style="swimlane;whiteSpace=wrap;html=1;rounded=0;strokeColor=default;" vertex="1" parent="37">
                    <mxGeometry width="300" height="170" as="geometry"/>
                </mxCell>
                <mxCell id="38" style="edgeStyle=entityRelationEdgeStyle;html=1;exitX=0;exitY=0.5;exitDx=0;exitDy=0;" edge="1" parent="1" source="34" target="15">
                    <mxGeometry relative="1" as="geometry"/>
                </mxCell>
                <mxCell id="63" style="edgeStyle=entityRelationEdgeStyle;html=1;exitX=0.16;exitY=0.55;exitDx=0;exitDy=0;exitPerimeter=0;entryX=1;entryY=0.5;entryDx=0;entryDy=0;dashed=1;" edge="1" parent="1" source="61" target="24">
                    <mxGeometry relative="1" as="geometry"/>
                </mxCell>
                <mxCell id="64" style="edgeStyle=entityRelationEdgeStyle;html=1;exitX=0.875;exitY=0.5;exitDx=0;exitDy=0;exitPerimeter=0;dashed=1;" edge="1" parent="1" source="61" target="59">
                    <mxGeometry relative="1" as="geometry"/>
                </mxCell>
                <mxCell id="65" value="" style="group" vertex="1" connectable="0" parent="1">
                    <mxGeometry x="-130" y="740" width="110" height="96" as="geometry"/>
                </mxCell>
                <mxCell id="61" value="" style="ellipse;shape=cloud;whiteSpace=wrap;html=1;rounded=0;strokeColor=#006EAF;fillColor=#1ba1e2;fontColor=#ffffff;" vertex="1" parent="65">
                    <mxGeometry width="110" height="70" as="geometry"/>
                </mxCell>
                <mxCell id="62" value="websocket" style="text;html=1;strokeColor=none;fillColor=none;align=center;verticalAlign=middle;whiteSpace=wrap;rounded=0;" vertex="1" parent="65">
                    <mxGeometry x="25" y="66" width="60" height="30" as="geometry"/>
                </mxCell>
                <mxCell id="79" style="edgeStyle=orthogonalEdgeStyle;shape=connector;curved=1;rounded=1;html=1;dashed=1;labelBackgroundColor=default;strokeColor=default;fontFamily=Helvetica;fontSize=11;fontColor=default;endArrow=classic;entryX=0.75;entryY=0;entryDx=0;entryDy=0;" edge="1" parent="1" source="yZXLWe79OLjicTHm0tPa-27" target="15">
                    <mxGeometry relative="1" as="geometry"/>
                </mxCell>
                <mxCell id="86" value="" style="group" vertex="1" connectable="0" parent="1">
                    <mxGeometry x="414" y="900" width="78" height="108" as="geometry"/>
                </mxCell>
                <mxCell id="84" value="" style="sketch=0;outlineConnect=0;fontColor=#ffffff;fillColor=#1ba1e2;strokeColor=#006EAF;dashed=0;verticalLabelPosition=bottom;verticalAlign=top;align=center;html=1;fontSize=12;fontStyle=0;aspect=fixed;pointerEvents=1;shape=mxgraph.aws4.iot_greengrass_component_nucleus;rounded=0;fontFamily=Helvetica;" vertex="1" parent="86">
                    <mxGeometry width="78" height="78" as="geometry"/>
                </mxCell>
                <mxCell id="85" value="MybatisPlus" style="text;html=1;strokeColor=none;fillColor=none;align=center;verticalAlign=middle;whiteSpace=wrap;rounded=0;fontFamily=Helvetica;fontSize=11;fontColor=default;" vertex="1" parent="86">
                    <mxGeometry x="9" y="78" width="60" height="30" as="geometry"/>
                </mxCell>
                <mxCell id="87" style="edgeStyle=orthogonalEdgeStyle;shape=connector;curved=1;rounded=1;html=1;dashed=1;labelBackgroundColor=default;strokeColor=default;fontFamily=Helvetica;fontSize=11;fontColor=default;endArrow=classic;startArrow=classic;startFill=1;entryX=0.5;entryY=1;entryDx=0;entryDy=0;" edge="1" parent="1" source="84" target="yZXLWe79OLjicTHm0tPa-15">
                    <mxGeometry relative="1" as="geometry">
                        <mxPoint x="430" y="860" as="targetPoint"/>
                    </mxGeometry>
                </mxCell>
                <mxCell id="89" style="edgeStyle=orthogonalEdgeStyle;shape=connector;curved=1;rounded=1;html=1;dashed=1;labelBackgroundColor=default;strokeColor=default;fontFamily=Helvetica;fontSize=11;fontColor=default;endArrow=classic;startArrow=classic;startFill=1;entryX=0.5;entryY=1;entryDx=0;entryDy=0;" edge="1" parent="1" source="yZXLWe79OLjicTHm0tPa-29" target="85">
                    <mxGeometry relative="1" as="geometry">
                        <mxPoint x="460" y="870" as="targetPoint"/>
                        <mxPoint x="463" y="910" as="sourcePoint"/>
                    </mxGeometry>
                </mxCell>
                <mxCell id="94" style="edgeStyle=orthogonalEdgeStyle;shape=connector;curved=1;rounded=1;html=1;exitX=0.5;exitY=1;exitDx=0;exitDy=0;entryX=0.75;entryY=0;entryDx=0;entryDy=0;dashed=1;labelBackgroundColor=default;strokeColor=default;fontFamily=Helvetica;fontSize=11;fontColor=default;startArrow=none;startFill=0;endArrow=classic;" edge="1" parent="1" source="93" target="15">
                    <mxGeometry relative="1" as="geometry"/>
                </mxCell>
                <mxCell id="93" value="&lt;h1&gt;网关&lt;/h1&gt;&lt;div&gt;前端应用调用后端服务的REST API，&lt;/div&gt;&lt;div&gt;所有REST API都通过网关转发。同时网关中使用sa-token进行集中认证鉴权。&lt;/div&gt;" style="text;html=1;strokeColor=none;fillColor=none;spacing=5;spacingTop=-20;whiteSpace=wrap;overflow=hidden;rounded=0;fontFamily=Helvetica;fontSize=11;fontColor=default;" vertex="1" parent="1">
                    <mxGeometry x="-413" y="180" width="190" height="120" as="geometry"/>
                </mxCell>
                <mxCell id="97" style="edgeStyle=orthogonalEdgeStyle;shape=connector;curved=1;rounded=1;html=1;dashed=1;labelBackgroundColor=default;strokeColor=default;fontFamily=Helvetica;fontSize=11;fontColor=default;startArrow=none;startFill=0;endArrow=classic;" edge="1" parent="1" source="96" target="62">
                    <mxGeometry relative="1" as="geometry"/>
                </mxCell>
                <mxCell id="96" value="&lt;h1&gt;Websocket&lt;/h1&gt;&lt;div&gt;chat-service需要使用websocket与前端应用保持长连接来完成聊天功能&lt;/div&gt;" style="text;html=1;strokeColor=none;fillColor=none;spacing=5;spacingTop=-20;whiteSpace=wrap;overflow=hidden;rounded=0;fontFamily=Helvetica;fontSize=11;fontColor=default;" vertex="1" parent="1">
                    <mxGeometry x="-190" y="900" width="190" height="120" as="geometry"/>
                </mxCell>
                <mxCell id="99" style="edgeStyle=orthogonalEdgeStyle;shape=connector;curved=1;rounded=1;html=1;entryX=0.5;entryY=0;entryDx=0;entryDy=0;dashed=1;labelBackgroundColor=default;strokeColor=default;fontFamily=Helvetica;fontSize=11;fontColor=default;startArrow=none;startFill=0;endArrow=classic;" edge="1" parent="1" source="98" target="yZXLWe79OLjicTHm0tPa-18">
                    <mxGeometry relative="1" as="geometry"/>
                </mxCell>
                <mxCell id="98" value="&lt;h1&gt;Dubbo&lt;/h1&gt;&lt;div&gt;通过Dubbo实现微服务间接口远程调用&lt;/div&gt;" style="text;html=1;strokeColor=none;fillColor=none;spacing=5;spacingTop=-20;whiteSpace=wrap;overflow=hidden;rounded=0;fontFamily=Helvetica;fontSize=11;fontColor=default;" vertex="1" parent="1">
                    <mxGeometry x="-160" y="200" width="190" height="80" as="geometry"/>
                </mxCell>
                <mxCell id="104" style="edgeStyle=orthogonalEdgeStyle;shape=connector;curved=1;rounded=1;html=1;entryX=0.5;entryY=0;entryDx=0;entryDy=0;dashed=1;labelBackgroundColor=default;strokeColor=default;fontFamily=Helvetica;fontSize=22;fontColor=default;startArrow=none;startFill=0;endArrow=classic;" edge="1" parent="1" source="103" target="yZXLWe79OLjicTHm0tPa-20">
                    <mxGeometry relative="1" as="geometry"/>
                </mxCell>
                <mxCell id="103" value="&lt;h1&gt;Nacos&lt;/h1&gt;&lt;div&gt;nacos实现对微服务进行管理，实现服务发现与配置管理&lt;/div&gt;" style="text;html=1;strokeColor=none;fillColor=none;spacing=5;spacingTop=-20;whiteSpace=wrap;overflow=hidden;rounded=0;fontFamily=Helvetica;fontSize=11;fontColor=default;" vertex="1" parent="1">
                    <mxGeometry x="60" y="220" width="190" height="80" as="geometry"/>
                </mxCell>
                <mxCell id="107" style="edgeStyle=orthogonalEdgeStyle;shape=connector;curved=1;rounded=1;html=1;dashed=1;labelBackgroundColor=default;strokeColor=default;fontFamily=Helvetica;fontSize=22;fontColor=default;startArrow=none;startFill=0;endArrow=classic;" edge="1" parent="1" source="106">
                    <mxGeometry relative="1" as="geometry">
                        <mxPoint x="670" y="270" as="targetPoint"/>
                    </mxGeometry>
                </mxCell>
                <mxCell id="106" value="&lt;h1&gt;外部服务&lt;/h1&gt;&lt;div&gt;通过飞书开放应用能力实现会议功能&lt;/div&gt;&lt;div&gt;oss对象存储完成文件存储&lt;/div&gt;" style="text;html=1;strokeColor=none;fillColor=none;spacing=5;spacingTop=-20;whiteSpace=wrap;overflow=hidden;rounded=0;fontFamily=Helvetica;fontSize=11;fontColor=default;" vertex="1" parent="1">
                    <mxGeometry x="820" y="280" width="190" height="80" as="geometry"/>
                </mxCell>
                <mxCell id="109" style="edgeStyle=orthogonalEdgeStyle;shape=connector;curved=1;rounded=1;html=1;dashed=1;labelBackgroundColor=default;strokeColor=default;fontFamily=Helvetica;fontSize=22;fontColor=default;startArrow=none;startFill=0;endArrow=classic;" edge="1" parent="1" source="108" target="84">
                    <mxGeometry relative="1" as="geometry"/>
                </mxCell>
                <mxCell id="108" value="&lt;h1&gt;数据持久&lt;/h1&gt;&lt;div&gt;使用mybatis-plus完成对数据库的访问，读写操作&lt;/div&gt;" style="text;html=1;strokeColor=none;fillColor=none;spacing=5;spacingTop=-20;whiteSpace=wrap;overflow=hidden;rounded=0;fontFamily=Helvetica;fontSize=11;fontColor=default;" vertex="1" parent="1">
                    <mxGeometry x="680" y="940" width="190" height="80" as="geometry"/>
                </mxCell>
            </root>
        </mxGraphModel>
    </diagram>
</mxfile>